<svg width="120" height="64" viewBox="0 0 120 64" fill="none" xmlns="http://www.w3.org/2000/svg">
<path d="M34.29 34.729H31.6503C31.188 34.729 30.8068 34.5663 30.4804 34.2407C30.4804 34.2407 30.4804 34.2407 30.4531 34.2136L30.4261 34.1865C30.1539 33.8877 29.9907 33.535 29.9907 33.1281V33.0738C29.9907 32.8839 30.1266 32.7483 30.3172 32.7483C30.5077 32.7483 30.671 32.8839 30.671 33.0738C30.671 33.318 30.7526 33.535 30.9431 33.7249L30.9701 33.7792C31.1606 33.9691 31.3781 34.0505 31.6503 34.0505H34.29C34.4259 34.0505 34.5618 34.0234 34.6708 33.9691C34.7797 33.9148 34.8886 33.8335 34.9702 33.752C35.0519 33.6706 35.1335 33.5621 35.1877 33.4265C35.2421 33.318 35.2693 33.1823 35.2693 33.0467C35.2693 32.7483 35.1877 32.5312 35.0519 32.3955C34.8886 32.2324 34.6981 32.1239 34.4532 32.0696C34.208 31.9883 33.9362 31.934 33.664 31.9069C33.3646 31.8798 33.1197 31.8255 32.9022 31.7983C32.5211 31.7441 32.1673 31.6899 31.8409 31.6084C31.5144 31.5271 31.2149 31.4186 30.9431 31.2829C30.671 31.1472 30.4531 30.9573 30.3172 30.7132C30.1539 30.4958 30.0723 30.1974 30.0723 29.8447C30.0723 29.4106 30.2356 29.0037 30.562 28.6778L30.5893 28.6506C30.9158 28.3522 31.2965 28.1895 31.7319 28.1895H34.2354C34.6708 28.1895 35.0519 28.3251 35.351 28.6235L35.3783 28.6506C35.7048 28.9766 35.868 29.3564 35.868 29.8176C35.868 30.0075 35.7321 30.1431 35.5415 30.1431C35.3237 30.1431 35.1877 30.0075 35.1877 29.8176C35.1877 29.5463 35.1061 29.3292 34.9156 29.1394L34.8067 29.0579C34.6434 28.9223 34.4259 28.8406 34.208 28.8406H31.705C31.4871 28.8406 31.2696 28.9223 31.1064 29.0579L31.0248 29.1394C30.8342 29.3292 30.7526 29.5463 30.7526 29.8176C30.7526 30.0618 30.8068 30.2788 30.9431 30.4144C31.079 30.5772 31.2422 30.6861 31.4601 30.7946C31.6776 30.9031 31.9498 30.9573 32.2489 31.0116C32.5485 31.0659 32.8749 31.1201 33.2013 31.1472C33.5278 31.2015 33.8546 31.2558 34.1538 31.31C34.4802 31.3643 34.7797 31.4728 35.0245 31.5813C35.2967 31.717 35.5142 31.8798 35.6775 32.1239C35.8407 32.3413 35.9496 32.6669 35.9496 33.0195C35.9496 33.2366 35.8953 33.4536 35.8137 33.6706C35.7321 33.8606 35.5959 34.0505 35.4599 34.1865C35.2967 34.3221 35.1335 34.4578 34.9429 34.5392C34.7251 34.6748 34.5075 34.729 34.29 34.729Z" fill="#2B3039" fill-opacity="0.5"/>
<path d="M41.3898 34.728C41.1993 34.728 41.063 34.5923 41.063 34.4024V32.9913C40.7366 32.9642 40.4101 32.8557 40.111 32.72C39.8115 32.5572 39.5393 32.3673 39.3218 32.1232C39.1039 31.8787 38.9137 31.5802 38.7775 31.2818C38.6416 30.9563 38.5869 30.6307 38.5869 30.278V28.6228C38.5869 28.4329 38.7232 28.2969 38.9137 28.2969C39.1313 28.2969 39.2672 28.4329 39.2672 28.6228V30.278C39.2672 30.5493 39.3218 30.8206 39.4307 31.0648C39.5393 31.3089 39.7026 31.5531 39.8931 31.743C40.0837 31.9333 40.3012 32.096 40.546 32.2046C40.7912 32.3131 41.063 32.3673 41.3625 32.3673H41.4984C41.7979 32.3673 42.0701 32.3131 42.3149 32.2046C42.5598 32.096 42.8046 31.9333 42.9678 31.743C43.1584 31.5531 43.2943 31.3361 43.4306 31.0648C43.5395 30.8206 43.5938 30.5493 43.5938 30.278V28.6228C43.5938 28.4329 43.7297 28.2969 43.9476 28.2969C44.1381 28.2969 44.274 28.4329 44.274 28.6228V30.278C44.274 30.6578 44.1924 31.0105 44.0565 31.3361C43.9202 31.6617 43.7297 31.9333 43.4848 32.1774C43.4848 32.2046 43.4579 32.2046 43.4579 32.2046C43.24 32.4216 42.9678 32.6115 42.6687 32.7471C42.3965 32.8828 42.0701 32.9642 41.7706 32.9913V34.4024C41.7163 34.5923 41.58 34.728 41.3898 34.728Z" fill="#2B3039" fill-opacity="0.5"/>
<path d="M52.3814 34.7293C52.2725 34.7293 52.1636 34.7022 52.055 34.6479C51.946 34.5937 51.8644 34.5394 51.8102 34.458L47.5109 28.9225C47.4835 28.8954 47.4835 28.8954 47.4835 28.8954C47.4562 28.8954 47.4562 28.8954 47.4293 28.9225C47.4019 28.9497 47.4019 28.9497 47.4019 28.9497V34.4038C47.4019 34.5937 47.266 34.7293 47.0755 34.7293C46.8849 34.7293 46.749 34.5937 46.749 34.4038V28.9497C46.749 28.7327 46.8306 28.5699 46.9665 28.4342C47.1844 28.244 47.4835 28.1897 47.7557 28.3253C47.8647 28.38 47.9463 28.4613 48.0005 28.5428L52.2998 34.0782C52.2998 34.0782 52.2998 34.1053 52.3268 34.1053C52.3542 34.1053 52.3814 34.1053 52.3814 34.0782C52.4088 34.0511 52.4088 34.0511 52.4088 34.0511V28.597C52.4088 28.4071 52.5447 28.2711 52.7352 28.2711C52.9254 28.2711 53.0617 28.4071 53.0617 28.597V34.0511C53.0617 34.241 52.9801 34.4038 52.8712 34.5394C52.7352 34.648 52.572 34.7293 52.3814 34.7293Z" fill="#2B3039" fill-opacity="0.5"/>
<path d="M58.6399 34.7261C58.4221 34.7261 58.2862 34.5905 58.2862 34.4005V28.919H56.0822C55.8917 28.919 55.7554 28.7833 55.7554 28.5663C55.7554 28.3764 55.8917 28.2407 56.0822 28.2407H61.1431C61.3335 28.2407 61.4696 28.3764 61.4696 28.5663C61.4696 28.7833 61.3335 28.919 61.1431 28.919H58.9391V34.4005C58.9664 34.5905 58.8301 34.7261 58.6399 34.7261Z" fill="#2B3039" fill-opacity="0.5"/>
<path d="M68.8461 34.7261C68.6562 34.7261 68.5195 34.5905 68.5195 34.4005V33.0708H64.3022V34.4005C64.3022 34.5905 64.1661 34.7261 63.9481 34.7261C63.7583 34.7261 63.6216 34.5905 63.6216 34.4005V28.5663C63.6216 28.3764 63.7583 28.2407 63.9481 28.2407C64.1386 28.2407 64.3022 28.3764 64.3022 28.5663V32.3922H68.5195V28.5663C68.5195 28.3764 68.6562 28.2407 68.8461 28.2407C69.0365 28.2407 69.1726 28.3764 69.1726 28.5663V34.4005C69.1726 34.5905 69.0365 34.7261 68.8461 34.7261Z" fill="#2B3039" fill-opacity="0.5"/>
<path d="M76.9293 34.7268H74.78C74.3991 34.7268 74.0451 34.6454 73.7191 34.5097C73.3925 34.3741 73.0928 34.1571 72.8481 33.9126C72.6033 33.6684 72.3854 33.3699 72.2493 33.0444C72.1131 32.7188 72.0312 32.3662 72.0312 31.986V31.0093C72.0312 30.6295 72.1131 30.2765 72.2493 29.9509C72.3854 29.6254 72.6033 29.3269 72.8481 29.0828C73.0928 28.8386 73.3925 28.6212 73.7191 28.4856C74.0451 28.3499 74.426 28.2686 74.78 28.2686H76.9293C77.1472 28.2686 77.2833 28.4042 77.2833 28.5941C77.2833 28.8115 77.1472 28.9472 76.9293 28.9472H74.78C74.4809 28.9472 74.2087 29.0014 73.9639 29.1099C73.7191 29.2185 73.5012 29.3812 73.3102 29.5711C73.1203 29.761 72.9567 29.978 72.8481 30.2222C72.7394 30.4668 72.6851 30.738 72.6851 31.0365V31.1992H76.549C76.7387 31.1992 76.8749 31.3349 76.8749 31.5248C76.8749 31.7418 76.7387 31.8775 76.549 31.8775H72.6851V32.0403C72.6851 32.3391 72.7394 32.6103 72.8481 32.8545C72.9567 33.0986 73.1203 33.3157 73.3102 33.5056C73.5012 33.6955 73.7191 33.8583 73.9639 33.9672C74.2087 34.0757 74.4809 34.1299 74.78 34.1299H76.9293C77.1472 34.1299 77.2833 34.2656 77.2833 34.4826C77.2833 34.5911 77.1472 34.7268 76.9293 34.7268Z" fill="#2B3039" fill-opacity="0.5"/>
<path d="M83.8915 34.7287H81.2521C80.7894 34.7287 80.4085 34.5659 80.0819 34.2404C80.0819 34.2404 80.082 34.2404 80.0545 34.2133L80.0276 34.1861C79.7554 33.8877 79.5918 33.535 79.5918 33.1277V33.0735C79.5918 32.8835 79.7285 32.7479 79.9184 32.7479C80.1088 32.7479 80.2724 32.8835 80.2724 33.0735C80.2724 33.318 80.3536 33.535 80.5446 33.7249L80.5715 33.7792C80.7625 33.9691 80.9799 34.0505 81.2521 34.0505H83.8915C84.027 34.0505 84.1637 34.0234 84.2724 33.9691C84.3811 33.9148 84.4897 33.8335 84.5715 33.752C84.6533 33.6706 84.7351 33.5621 84.7894 33.4265C84.8437 33.318 84.8712 33.1823 84.8712 33.0463C84.8712 32.7479 84.7894 32.5309 84.6533 32.3952C84.4897 32.2324 84.2993 32.1239 84.0545 32.0696C83.8097 31.9883 83.5375 31.934 83.2652 31.9069C82.9661 31.8798 82.7213 31.8255 82.5034 31.7983C82.1225 31.7441 81.7691 31.6899 81.4425 31.6084C81.116 31.5271 80.8169 31.4182 80.5446 31.2825C80.2724 31.1469 80.0545 30.957 79.9184 30.7129C79.7554 30.4958 79.6736 30.1974 79.6736 29.8447C79.6736 29.4103 79.8372 29.0033 80.1637 28.6778L80.1906 28.6506C80.5172 28.3522 80.8981 28.1895 81.3339 28.1895H83.8372C84.2724 28.1895 84.6533 28.3251 84.9524 28.6235L84.9799 28.6506C85.3064 28.9762 85.4694 29.356 85.4694 29.8176C85.4694 30.0075 85.3333 30.1431 85.1428 30.1431C84.9255 30.1431 84.7894 30.0075 84.7894 29.8176C84.7894 29.5459 84.7076 29.3289 84.5172 29.1389L84.4085 29.0576C84.2449 28.9219 84.027 28.8406 83.8097 28.8406H81.3339C81.116 28.8406 80.8981 28.9219 80.7351 29.0576L80.6533 29.1389C80.4628 29.3289 80.3811 29.5459 80.3811 29.8176C80.3811 30.0618 80.4354 30.2788 80.5715 30.4144C80.7076 30.5772 80.8706 30.6857 81.0885 30.7942C81.3064 30.9028 81.5787 30.957 81.8778 31.0112C82.1769 31.0655 82.5034 31.1198 82.83 31.1469C83.1566 31.2012 83.4831 31.2554 83.7823 31.3097C84.1088 31.364 84.4085 31.4728 84.6533 31.5813C84.9255 31.717 85.1428 31.8798 85.3064 32.1239C85.4694 32.341 85.5781 32.6665 85.5781 33.0192C85.5781 33.2366 85.5237 33.4536 85.4425 33.6706C85.3608 33.8606 85.2246 34.0505 85.0885 34.1861C84.9255 34.3218 84.7619 34.4574 84.5715 34.5388C84.3267 34.6745 84.1363 34.7287 83.8915 34.7287Z" fill="#2B3039" fill-opacity="0.5"/>
<path d="M88.6542 34.7261C88.4638 34.7261 88.3276 34.5905 88.3276 34.4005V28.5663C88.3276 28.3764 88.4638 28.2407 88.6542 28.2407C88.8446 28.2407 89.0082 28.3764 89.0082 28.5663V34.4005C89.0082 34.5905 88.8721 34.7261 88.6542 34.7261Z" fill="#2B3039" fill-opacity="0.5"/>
<path d="M97.4693 34.7261H93.034C92.8711 34.7261 92.7081 34.699 92.5445 34.6176C92.4084 34.5633 92.2722 34.4819 92.1636 34.3734C92.0549 34.2649 91.9732 34.1289 91.892 33.9933C91.837 33.8576 91.8096 33.6948 91.8096 33.5321C91.8096 33.315 91.8645 33.098 91.9731 32.9352C92.0818 32.7724 92.2179 32.6097 92.4084 32.5011L96.7624 29.9503C96.8442 29.896 96.9254 29.8417 96.9797 29.7604C97.034 29.6789 97.0615 29.5976 97.0346 29.489C97.0346 29.2991 96.9797 29.1635 96.8711 29.055C96.7624 28.9461 96.6263 28.8918 96.4902 28.8918H92.2997C92.1093 28.8918 91.9731 28.7562 91.9731 28.5663C91.9731 28.3764 92.1093 28.2407 92.2997 28.2407H96.4902C96.6532 28.2407 96.8167 28.2679 96.9523 28.3493C97.089 28.4035 97.2245 28.4849 97.3337 28.5934C97.4424 28.7019 97.5242 28.8376 97.606 28.9736C97.6603 29.1093 97.7146 29.272 97.7146 29.4348C97.7146 29.6518 97.6603 29.8417 97.5511 30.0316C97.4424 30.2216 97.3063 30.3572 97.1158 30.4657L92.7624 33.0166C92.6806 33.0709 92.6263 33.1251 92.572 33.2336C92.517 33.315 92.4902 33.3964 92.4902 33.4778C92.4902 33.6405 92.5445 33.7762 92.6538 33.9118C92.7624 34.0204 92.8985 34.0746 93.0615 34.0746H97.4967C97.6872 34.0746 97.8233 34.2106 97.8233 34.4005C97.7964 34.5905 97.6603 34.7261 97.4693 34.7261Z" fill="#2B3039" fill-opacity="0.5"/>
<path d="M105.173 34.7268H103.023C102.643 34.7268 102.289 34.6454 101.963 34.5097C101.636 34.3741 101.337 34.1571 101.092 33.9126C100.847 33.6684 100.629 33.3699 100.493 33.0444C100.357 32.7188 100.275 32.3662 100.275 31.986V31.0093C100.275 30.6295 100.357 30.2765 100.493 29.9509C100.629 29.6254 100.847 29.3269 101.092 29.0828C101.337 28.8386 101.636 28.6212 101.963 28.4856C102.289 28.3499 102.67 28.2686 103.023 28.2686H105.173C105.391 28.2686 105.527 28.4042 105.527 28.5941C105.527 28.8115 105.391 28.9472 105.173 28.9472H103.023C102.724 28.9472 102.452 29.0014 102.207 29.1099C101.963 29.2185 101.745 29.3812 101.554 29.5711C101.364 29.761 101.2 29.978 101.092 30.2222C100.983 30.4668 100.929 30.738 100.929 31.0365V31.1992H104.792C104.983 31.1992 105.118 31.3349 105.118 31.5248C105.118 31.7418 104.983 31.8775 104.792 31.8775H100.929V32.0403C100.929 32.3391 100.983 32.6103 101.092 32.8545C101.2 33.0986 101.364 33.3157 101.554 33.5056C101.745 33.6955 101.963 33.8583 102.207 33.9672C102.452 34.0757 102.724 34.1299 103.023 34.1299H105.173C105.391 34.1299 105.527 34.2656 105.527 34.4826C105.5 34.5911 105.364 34.7268 105.173 34.7268Z" fill="#2B3039" fill-opacity="0.5"/>
<path d="M110.884 34.7268H109.36C108.98 34.7268 108.653 34.5911 108.381 34.347L108.354 34.3198C108.081 34.0486 107.946 33.6955 107.946 33.3157V29.6797C107.946 29.2998 108.081 28.9471 108.354 28.6755L108.381 28.6484C108.653 28.4042 108.98 28.2686 109.36 28.2686H110.884C111.265 28.2686 111.619 28.3499 111.945 28.4856C112.272 28.6212 112.571 28.8386 112.816 29.0828C113.061 29.3269 113.251 29.6254 113.415 29.9509C113.551 30.2765 113.632 30.6295 113.632 31.0093V31.986C113.632 32.3662 113.551 32.7188 113.415 33.0444C113.278 33.3699 113.061 33.6684 112.816 33.9126C112.571 34.1571 112.272 34.3741 111.945 34.5097C111.619 34.6454 111.238 34.7268 110.884 34.7268ZM108.871 33.8854C109.034 33.9943 109.17 34.0486 109.36 34.0486H110.884C111.156 34.0486 111.428 33.9943 111.673 33.8854C111.918 33.7769 112.163 33.6141 112.354 33.4242C112.544 33.2343 112.707 33.0173 112.816 32.7731C112.925 32.529 112.979 32.2576 112.979 31.9589V30.9822C112.979 30.6838 112.925 30.4121 112.816 30.168C112.707 29.9238 112.544 29.6797 112.354 29.5169C112.163 29.3269 111.945 29.1913 111.673 29.0557C111.428 28.9471 111.156 28.8929 110.884 28.8929H109.36C109.197 28.8929 109.034 28.9471 108.898 29.0557C108.898 29.0557 108.871 29.0557 108.871 29.0828L108.816 29.137C108.68 29.2727 108.598 29.4626 108.598 29.6797V33.3157C108.598 33.5327 108.68 33.6955 108.816 33.8583L108.871 33.8854Z" fill="#2B3039" fill-opacity="0.5"/>
<path d="M19.3118 20.1758L16.7974 24.5349H18.5394C18.1943 26.5508 16.4196 28.1077 14.2994 28.124C13.7245 28.124 13.1492 28.2715 12.6398 28.5663C11.8838 28.9924 11.358 29.6974 11.1278 30.533C10.8979 31.369 11.0127 32.2375 11.4564 32.9913C11.8838 33.7451 12.5903 34.2696 13.4287 34.499C13.7081 34.5811 13.9872 34.6136 14.2666 34.6136C14.8256 34.6136 15.3841 34.4664 15.8934 34.1712C16.6495 33.7451 17.1756 33.0405 17.4055 32.2046C17.6358 31.369 17.5207 30.5005 17.0769 29.7463C16.929 29.5007 16.7646 29.2876 16.5675 29.0908C18.3914 28.2878 19.7228 26.5834 19.9858 24.5512H21.8262L19.3118 20.1758ZM14.7268 29.6154C15.187 29.7463 15.5812 30.0414 15.8279 30.4513C16.0745 30.8608 16.1401 31.3523 16.0086 31.8114C15.8771 32.2704 15.5812 32.6636 15.1706 32.9096C14.7596 33.1552 14.2666 33.2207 13.8065 33.0897C13.3463 32.9584 12.9521 32.6636 12.7054 32.2537C12.4591 31.8443 12.3932 31.3523 12.5247 30.8937C12.6563 30.4346 12.9521 30.0414 13.3627 29.7955C13.6422 29.6316 13.938 29.5499 14.2503 29.5499C14.2503 29.5499 14.2503 29.5499 14.2666 29.5499C14.2666 29.5499 14.2666 29.5499 14.2831 29.5499C14.4146 29.5499 14.5789 29.5662 14.7268 29.6154Z" fill="#2B3039" fill-opacity="0.5"/>
<path d="M21.3336 35.1394L16.502 33.6973L17.6522 38.5971L18.918 37.4172C20.0518 39.1379 19.8215 41.4816 18.2767 42.94C17.9812 43.2185 17.9645 43.6613 18.2439 43.9561C18.5234 44.2512 18.9671 44.2675 19.263 43.989C21.3991 41.9897 21.6622 38.7284 19.9858 36.4174L21.3336 35.1394Z" fill="#2B3039" fill-opacity="0.5"/>
<path d="M7.332 34.8246L11.0462 31.4323L6.24735 29.908L6.6252 31.5962C4.55458 31.6946 2.64831 30.3016 2.18814 28.2202C2.10598 27.8267 1.71158 27.581 1.3336 27.6794C0.939198 27.7612 0.692677 28.1548 0.791268 28.5317C1.43219 31.3831 4.09441 33.284 6.95379 33.0218L7.332 34.8246Z" fill="#2B3039" fill-opacity="0.5"/>
</svg>
