<svg width="120" height="64" viewBox="0 0 120 64" fill="none" xmlns="http://www.w3.org/2000/svg">
<mask id="mask0_103_1518" style="mask-type:luminance" maskUnits="userSpaceOnUse" x="3" y="23" width="114" height="18">
<path d="M116.49 23.9302H3.50977V40.0702H116.49V23.9302Z" fill="white"/>
</mask>
<g mask="url(#mask0_103_1518)">
<mask id="mask1_103_1518" style="mask-type:luminance" maskUnits="userSpaceOnUse" x="3" y="24" width="113" height="16">
<path d="M115.739 24.3994H3.50977V39.2979H115.739V24.3994Z" fill="white"/>
</mask>
<g mask="url(#mask1_103_1518)">
<path d="M9.11981 31.706C8.99111 32.0412 8.74623 32.3203 8.42887 32.4934C7.86591 32.7995 7.375 33.2213 7.05507 33.7707L7.00142 33.8632C6.68923 34.4055 6.53968 35.0247 6.57031 35.6481C6.58181 35.9334 6.51151 36.2161 6.36756 36.4636C6.22359 36.7111 6.01182 36.9133 5.75671 37.0467C5.50159 37.1801 5.21353 37.2394 4.92582 37.2177C4.63809 37.1961 4.36244 37.0943 4.13068 36.9242C3.92471 36.7733 3.76034 36.5737 3.65269 36.3435C3.54505 36.1134 3.49757 35.8602 3.51462 35.6072C3.53167 35.3542 3.61271 35.1095 3.75029 34.8955C3.88787 34.6816 4.07757 34.5053 4.30196 34.3829C4.86461 34.0765 5.3555 33.6559 5.67674 33.1036L5.73071 33.0115C6.04256 32.469 6.19208 31.85 6.16182 31.2266C6.14947 30.9408 6.22 30.6575 6.3651 30.4101C6.5573 30.0804 6.86791 29.8344 7.23509 29.7211C7.60228 29.6079 7.9991 29.6356 8.34657 29.7988C8.69404 29.9619 8.96668 30.2486 9.1102 30.6018C9.25373 30.9549 9.25762 31.3486 9.1211 31.7044L9.11981 31.706ZM10.3301 28.14C10.6328 28.1401 10.9287 28.0513 11.1804 27.8849C11.4321 27.7185 11.6282 27.482 11.7441 27.2053C11.8599 26.9286 11.8903 26.6241 11.8312 26.3303C11.7722 26.0365 11.6265 25.7667 11.4124 25.5549C11.1984 25.343 10.9257 25.1988 10.6289 25.1404C10.332 25.082 10.0243 25.112 9.74468 25.2266C9.46504 25.3413 9.22606 25.5355 9.05794 25.7845C8.88983 26.0336 8.80013 26.3264 8.80019 26.626C8.80019 26.8248 8.83977 27.0217 8.91664 27.2054C8.99353 27.3891 9.10623 27.556 9.24828 27.6966C9.39035 27.8372 9.559 27.9487 9.74463 28.0248C9.93024 28.1008 10.1292 28.14 10.3301 28.14ZM15.6262 34.1967C15.3236 34.1967 15.0277 34.2854 14.776 34.4518C14.5243 34.6182 14.3281 34.8547 14.2122 35.1314C14.0964 35.4082 14.066 35.7127 14.1251 36.0064C14.1841 36.3002 14.3299 36.5701 14.5439 36.7819C14.7579 36.9937 15.0306 37.138 15.3275 37.1963C15.6243 37.2548 15.932 37.2248 16.2117 37.1101C16.4913 36.9955 16.7303 36.8013 16.8984 36.5522C17.0665 36.3031 17.1561 36.0103 17.1561 35.7108C17.156 35.3093 16.9949 34.9242 16.7079 34.6403C16.421 34.3564 16.0319 34.1968 15.6262 34.1967ZM13.896 29.9521C13.6642 29.782 13.3886 29.6802 13.1008 29.6585C12.8131 29.6368 12.5251 29.6961 12.2699 29.8296C12.0148 29.963 11.8031 30.1651 11.6591 30.4126C11.5151 30.6601 11.4448 30.9428 11.4563 31.2282C11.4869 31.8516 11.3374 32.4707 11.0252 33.0131L10.9716 33.1052C10.6504 33.6559 10.1594 34.0765 9.59649 34.3845C9.35799 34.5148 9.15897 34.7058 9.02 34.9377C8.88102 35.1696 8.80713 35.434 8.80595 35.7036C8.80477 35.9732 8.87634 36.2382 9.01329 36.4713C9.15022 36.7044 9.34756 36.8971 9.5849 37.0295C9.82225 37.1618 10.091 37.2291 10.3634 37.2243C10.6358 37.2194 10.902 37.1428 11.1344 37.0022C11.3668 36.8615 11.5571 36.662 11.6856 36.4242C11.814 36.1865 11.876 35.9191 11.8651 35.6497C11.8345 35.0263 11.9841 34.4071 12.2963 33.8648L12.3499 33.7723C12.6711 33.2219 13.162 32.801 13.7247 32.495C13.9491 32.3726 14.1389 32.1963 14.2766 31.9824C14.4142 31.7685 14.4952 31.5237 14.5123 31.2707C14.5294 31.0176 14.4819 30.7644 14.3741 30.5343C14.2664 30.3041 14.102 30.1045 13.896 29.9537V29.9521ZM33.7168 28.1384V36.2365H31.6892V35.2726L31.6669 35.3075C31.4626 35.6273 31.1465 35.8851 30.7274 36.075C30.289 36.2702 29.8129 36.3684 29.3323 36.3629C28.5347 36.3629 27.8327 36.1873 27.2459 35.8409C26.6591 35.4948 26.1901 34.9832 25.8989 34.3717C25.5919 33.742 25.4361 33.0064 25.4361 32.1851C25.4361 31.3638 25.5919 30.6285 25.8989 29.9985C26.206 29.3684 26.6564 28.8753 27.2378 28.5292C27.8192 28.1832 28.5136 28.0082 29.3002 28.0082C29.7749 28.0041 30.2448 28.0998 30.6792 28.289C31.0994 28.4755 31.4316 28.7266 31.6679 29.0349L31.6898 29.0633V28.1358L33.7168 28.1384ZM31.8197 32.1876C31.8197 31.4578 31.6187 30.8613 31.2221 30.4152C30.8256 29.969 30.2879 29.7436 29.6254 29.7436C28.9738 29.7436 28.442 29.97 28.0448 30.4152C27.6475 30.8604 27.4473 31.4575 27.4473 32.1876C27.4432 32.5244 27.4937 32.8597 27.5969 33.1807C27.6918 33.4675 27.844 33.7325 28.0444 33.9601C28.441 34.4078 28.9729 34.6317 29.625 34.6317C30.2879 34.6317 30.825 34.4056 31.2219 33.9601C31.6187 33.5146 31.8197 32.9178 31.8197 32.1876ZM40.2429 28.0082C39.7488 28.0082 39.2604 28.1624 38.7922 28.4656C38.3239 28.7688 37.9842 29.1551 37.779 29.6128L37.7557 29.6646V28.1384H35.7284V36.2365H37.7564V33.2673C37.7564 32.1313 37.968 31.2752 38.3856 30.7219C38.8031 30.1686 39.3361 29.8872 39.9669 29.8872C40.3615 29.8872 40.7082 29.9511 40.9981 30.0746L41.1274 28.1352C40.8412 28.0469 40.5426 28.004 40.2429 28.0082ZM47.0165 34.2665C46.7066 34.5086 46.3056 34.6314 45.8286 34.6314C45.1873 34.6314 44.669 34.4075 44.2886 33.9668C43.9083 33.5261 43.716 32.9274 43.716 32.1864C43.716 31.4453 43.9099 30.8463 44.2886 30.4059C44.6674 29.9655 45.1871 29.7407 45.8286 29.7407C46.3068 29.7407 46.7121 29.8747 47.033 30.1382C47.354 30.4018 47.5501 30.7481 47.6296 31.1729L49.6091 30.791C49.4672 29.9444 49.0503 29.2619 48.37 28.7633C47.6897 28.2647 46.8084 28.0082 45.7633 28.0082C44.9553 28.0082 44.2283 28.1867 43.6035 28.5385C42.9837 28.8855 42.4747 29.3976 42.1344 30.0167C41.7844 30.6458 41.607 31.3759 41.607 32.1864C41.607 32.9968 41.7844 33.7269 42.1344 34.356C42.4745 34.9751 42.9836 35.4872 43.6035 35.8339C43.9206 36.0114 44.2607 36.1451 44.6144 36.2311C44.9906 36.3212 45.3763 36.3659 45.7633 36.3641C46.7975 36.3641 47.6701 36.1182 48.3535 35.6334C49.037 35.1485 49.4559 34.482 49.6087 33.646L47.629 33.2478C47.53 33.6847 47.3242 34.0276 47.0165 34.2677V34.2665ZM58.0412 28.8107C57.4866 28.2782 56.7417 28.0082 55.8266 28.0082C55.2662 28.0082 54.7559 28.1298 54.3099 28.3696C53.865 28.6077 53.4927 28.9595 53.2318 29.3883L53.2092 29.4247V24.851H51.1816V36.2365H53.2092V32.7185C53.2092 31.7962 53.3853 31.0702 53.7324 30.5604C54.0795 30.0506 54.5771 29.7893 55.2079 29.7893C55.7079 29.7893 56.1109 29.9371 56.4038 30.2281C56.6965 30.5191 56.8471 30.9237 56.8471 31.4293V36.2365H58.8743V30.9307C58.8759 30.0573 58.5951 29.3444 58.0412 28.8119V28.8107ZM62.8207 24.7579C62.5741 24.5193 62.2645 24.3984 61.9006 24.3984C61.5473 24.3984 61.2461 24.5168 61.0054 24.7502C60.7646 24.9837 60.6428 25.2786 60.6428 25.6281C60.6428 25.9777 60.7619 26.2761 60.9982 26.514C61.1122 26.6306 61.2496 26.7221 61.4016 26.7827C61.5609 26.8441 61.7306 26.8747 61.9016 26.8729C62.2655 26.8729 62.575 26.752 62.8215 26.5137C62.9413 26.3993 63.0358 26.2616 63.0993 26.1094C63.1626 25.9571 63.1935 25.7935 63.19 25.6288C63.1924 25.4665 63.1608 25.3054 63.0973 25.1557C63.0337 25.0061 62.9395 24.8711 62.8207 24.7592V24.7579ZM60.8867 36.2356H62.9146V28.1387H60.8867V36.2356ZM73.2058 32.1864C73.2058 33.008 73.0419 33.7432 72.7185 34.3723C72.412 34.9844 71.9329 35.4955 71.3391 35.8435C70.7464 36.1899 70.0464 36.3654 69.2608 36.3654C68.8077 36.3695 68.3583 36.2849 67.9384 36.1166C67.5347 35.9516 67.2103 35.7223 66.9744 35.4351L66.9526 35.4092V39.1699H64.9251V28.1384H66.9526V29.0979L66.9744 29.0681C67.2109 28.7483 67.5463 28.4902 67.9709 28.2986C68.3957 28.1071 68.8791 28.0108 69.4072 28.0108C70.1718 28.0108 70.8488 28.1867 71.4202 28.5331C71.9915 28.8794 72.436 29.3735 72.7429 30.0023C73.05 30.6311 73.2058 31.3663 73.2058 32.1876V32.1864ZM71.1946 32.1864C71.1946 31.4565 70.9936 30.8601 70.597 30.4139C70.2006 29.9678 69.668 29.7423 69.0164 29.7423C68.354 29.7423 67.8169 29.9687 67.4197 30.4139C67.0225 30.8591 66.8224 31.4562 66.8224 32.1864C66.8183 32.5232 66.8689 32.8585 66.9724 33.1794C67.067 33.4663 67.2192 33.7314 67.4197 33.9588C67.8162 34.4065 68.3536 34.6304 69.0164 34.6304C69.6686 34.6304 70.2002 34.4043 70.597 33.9588C70.994 33.5133 71.1946 32.9178 71.1946 32.1876V32.1864ZM82.4562 32.7061H76.3631L76.3647 32.7198C76.4516 33.3323 76.6879 33.8174 77.0689 34.1612C77.45 34.505 77.9396 34.68 78.5265 34.68C79.0044 34.68 79.412 34.5709 79.738 34.3557C80.0641 34.1405 80.2813 33.8347 80.3912 33.4416L82.2895 33.9527C82.0758 34.6854 81.5981 35.3151 80.9466 35.7226C80.2783 36.1492 79.4533 36.3654 78.4941 36.3654C77.6318 36.3654 76.8782 36.1684 76.2532 35.7792C75.6409 35.4035 75.1462 34.8667 74.8242 34.2287C74.5027 33.5955 74.3358 32.8963 74.3372 32.1876C74.3336 31.4786 74.4917 30.778 74.7999 30.1379C75.1036 29.5077 75.5786 28.9737 76.1718 28.5957C76.7746 28.2068 77.5175 28.0082 78.3791 28.0082C79.2517 28.0082 80.0059 28.1976 80.6202 28.5708C81.2347 28.944 81.7038 29.4343 82.0161 30.0324C82.3242 30.6122 82.4858 31.2572 82.4869 31.9123C82.4875 32.2276 82.4769 32.4947 82.4562 32.7073V32.7061ZM80.3149 31.2474V31.2342C80.2599 30.7283 80.067 30.3138 79.7412 30.002C79.4154 29.6902 78.9566 29.5312 78.381 29.5312C77.8703 29.5312 77.4377 29.6787 77.0948 29.9694C76.752 30.2601 76.5238 30.6851 76.4161 31.233L76.4133 31.2474H80.3149ZM84.0588 24.851V36.2365H86.0864V24.851H84.0588ZM95.938 28.1384V36.2365H93.9104V35.2726L93.8881 35.3075C93.6838 35.6273 93.3677 35.8854 92.9486 36.075C92.5101 36.2701 92.0339 36.3684 91.5532 36.3629C90.7559 36.3629 90.0539 36.1873 89.4671 35.8409C88.8802 35.4949 88.4111 34.9833 88.1201 34.3717C87.8131 33.7426 87.6574 33.007 87.6574 32.1851C87.6574 31.3631 87.8131 30.6279 88.1201 29.9985C88.4271 29.3691 88.8773 28.8756 89.459 28.5292C90.0408 28.1829 90.7345 28.0082 91.5206 28.0082C91.9952 28.0042 92.4654 28.0999 92.8998 28.289C93.3199 28.4755 93.6518 28.7266 93.8884 29.0349L93.9104 29.0633V28.1358L95.938 28.1384ZM94.0406 32.1876C94.0406 31.4578 93.8396 30.8613 93.4435 30.4152C93.0472 29.969 92.5085 29.7436 91.8463 29.7436C91.1944 29.7436 90.6628 29.97 90.266 30.4152C89.8691 30.8604 89.6684 31.4575 89.6684 32.1876C89.6643 32.5245 89.7149 32.8598 89.8184 33.1807C89.9131 33.4676 90.0654 33.7327 90.266 33.9601C90.6625 34.4078 91.1944 34.6317 91.8463 34.6317C92.5091 34.6317 93.0462 34.4056 93.4435 33.9601C93.8406 33.5146 94.0406 32.9178 94.0406 32.1876ZM105.61 28.1384V35.7328C105.61 36.4364 105.441 37.0659 105.107 37.6038C104.774 38.1418 104.293 38.5633 103.679 38.8565C103.066 39.1498 102.349 39.2979 101.55 39.2979C100.591 39.2979 99.7553 39.0627 99.066 38.5994C98.3766 38.1359 97.9617 37.5299 97.8195 36.7899L99.7001 36.4875C99.7465 36.8595 99.945 37.1566 100.29 37.3707C100.636 37.5846 101.062 37.6943 101.551 37.6943C102.17 37.6943 102.674 37.5344 103.049 37.2146C103.424 36.8948 103.615 36.4678 103.615 35.9404V35.0161L103.593 35.0481C103.388 35.3359 103.078 35.5668 102.67 35.7367C102.243 35.9102 101.785 35.9972 101.323 35.9925C100.733 35.9925 100.198 35.9004 99.7307 35.7184C99.2702 35.5406 98.8571 35.2608 98.5227 34.9007C97.8498 34.176 97.5086 33.2027 97.5086 32.0082C97.5086 31.2179 97.6615 30.5121 97.9633 29.9102C98.2492 29.3248 98.7035 28.836 99.2693 28.5052C99.8348 28.1749 100.51 28.0073 101.273 28.0073C101.732 28.0022 102.187 28.0892 102.611 28.2631C103.015 28.4339 103.34 28.6658 103.576 28.953L103.598 28.9786V28.1384H105.61ZM103.729 32.0105C103.729 31.3232 103.535 30.7673 103.156 30.3583C102.777 29.9492 102.257 29.742 101.616 29.742C100.987 29.742 100.474 29.9495 100.093 30.3583C99.7122 30.767 99.52 31.3228 99.52 32.0105C99.5161 32.3223 99.5646 32.6326 99.6638 32.9287C99.7552 33.1946 99.9013 33.4389 100.093 33.646C100.474 34.0551 100.986 34.2623 101.616 34.2623C102.247 34.2623 102.762 34.0551 103.148 33.646C103.533 33.237 103.729 32.6872 103.729 32.0105ZM115.738 32.1876C115.738 32.9766 115.552 33.6985 115.185 34.333C114.826 34.961 114.298 35.4781 113.659 35.8272C113.013 36.1844 112.276 36.3654 111.467 36.3654C111.077 36.3669 110.689 36.3215 110.31 36.2305C109.948 36.1419 109.601 36.0063 109.276 35.8272C108.637 35.4781 108.109 34.961 107.75 34.333C107.383 33.6991 107.198 32.9773 107.198 32.1876C107.198 31.398 107.383 30.6765 107.75 30.042C108.109 29.4143 108.638 28.8973 109.276 28.5481C109.922 28.1909 110.66 28.0095 111.468 28.0095C112.276 28.0095 113.014 28.1909 113.66 28.5481C114.299 28.8969 114.828 29.414 115.188 30.042C115.553 30.6768 115.738 31.3983 115.738 32.1876ZM113.694 32.1876C113.694 31.468 113.487 30.8745 113.08 30.4232C112.672 29.9719 112.129 29.742 111.467 29.742C110.804 29.742 110.262 29.9684 109.854 30.4136C109.446 30.8588 109.24 31.4559 109.24 32.186C109.24 32.9162 109.446 33.5126 109.854 33.9585C110.261 34.4043 110.804 34.6301 111.467 34.6301C112.129 34.6301 112.672 34.4011 113.08 33.9495C113.487 33.4979 113.694 32.9069 113.694 32.1876Z" fill="#2B3039" fill-opacity="0.5"/>
</g>
</g>
</svg>
