<svg width="122" height="64" viewBox="0 0 122 64" fill="none" xmlns="http://www.w3.org/2000/svg">
<mask id="mask0_103_1564" style="mask-type:luminance" maskUnits="userSpaceOnUse" x="10" y="22" width="103" height="20">
<path d="M112.319 22H10.4436V42H112.319V22Z" fill="white"/>
</mask>
<g mask="url(#mask0_103_1564)">
<mask id="mask1_103_1564" style="mask-type:luminance" maskUnits="userSpaceOnUse" x="10" y="22" width="103" height="20">
<path d="M112.319 22H10.4436V42H112.319V22Z" fill="white"/>
</mask>
<g mask="url(#mask1_103_1564)">
<mask id="mask2_103_1564" style="mask-type:luminance" maskUnits="userSpaceOnUse" x="36" y="27" width="76" height="10">
<path d="M111.783 27.7129H36.5447V36.2843H111.783V27.7129Z" fill="white"/>
</mask>
<g mask="url(#mask2_103_1564)">
<path d="M38.3692 30.9969V36.0046H36.5447V27.7129H38.374L41.2979 33.0213L44.2744 27.7129H46.0535V36.0046H44.229V31.0183L41.3194 36.2627L38.3692 30.9969Z" fill="#2B3039" fill-opacity="0.5"/>
<path d="M49.9983 31.944V27.7129H51.8347V31.944C51.8347 33.5185 52.4572 34.4277 53.9597 34.4277C55.4623 34.4277 56.0847 33.5185 56.0847 31.9535V27.7129H57.9427V31.9535C57.9427 34.5035 56.5689 36.1135 53.9597 36.1135C51.3506 36.1135 49.9983 34.5153 49.9983 31.944Z" fill="#2B3039" fill-opacity="0.5"/>
<path d="M61.885 27.7129H63.719L63.7095 34.3496H67.938V36.0046H61.885V27.7129Z" fill="#2B3039" fill-opacity="0.5"/>
<path d="M71.7801 29.3679H69.1256L69.116 27.7129H76.2373V29.3679H73.5855V36.0046H71.7801V29.3679Z" fill="#2B3039" fill-opacity="0.5"/>
<path d="M79.4617 27.7129H81.2961V36.0046H79.4617V27.7129Z" fill="#2B3039" fill-opacity="0.5"/>
<path d="M85.4001 27.7129H89.2877C91.2221 27.7129 92.4288 28.8186 92.4288 30.4831C92.4288 32.1476 91.3363 33.2509 89.3926 33.2509H87.237V36.0069H85.4026V27.7129H85.4001ZM89.3046 31.6338C90.1295 31.6338 90.5564 31.1626 90.5564 30.4831C90.5564 29.8036 90.1271 29.3395 89.3046 29.3395H87.237V31.6338H89.3046Z" fill="#2B3039" fill-opacity="0.5"/>
<path d="M95.9036 27.7129H97.738L97.728 34.3496H101.957V36.0046H95.9036V27.7129Z" fill="#2B3039" fill-opacity="0.5"/>
<path d="M105.182 27.7129H111.774V29.3656H107.005V30.8146L110.352 30.8241V32.4246H107.005V34.3496H111.783V36.0046H105.182V27.7129Z" fill="#2B3039" fill-opacity="0.5"/>
</g>
<mask id="mask3_103_1564" style="mask-type:luminance" maskUnits="userSpaceOnUse" x="10" y="22" width="21" height="20">
<path d="M30.4436 22H10.4436V42H30.4436V22Z" fill="white"/>
</mask>
<g mask="url(#mask3_103_1564)">
<path d="M29.7116 30.232C30.1796 29.764 30.4436 29.128 30.4436 28.464V22H23.3976C23.1076 22 22.8276 22.116 22.6216 22.322L20.6836 24.26C20.6176 24.326 20.5296 24.36 20.4436 24.36C20.3556 24.36 20.2696 24.326 20.2036 24.26L18.2656 22.322C18.0596 22.116 17.7816 22 17.4896 22H10.4436V28.464C10.4436 29.128 10.7076 29.762 11.1756 30.232L12.7036 31.76C12.8356 31.892 12.8356 32.108 12.7036 32.24L10.7656 34.178C10.5596 34.384 10.4436 34.662 10.4436 34.954V42H17.4896C17.7796 42 18.0596 41.884 18.2656 41.678L20.2036 39.74C20.2696 39.674 20.3576 39.64 20.4436 39.64C20.5316 39.64 20.6176 39.674 20.6836 39.74L22.6216 41.678C22.8276 41.884 23.1056 42 23.3976 42H30.4436V34.954C30.4436 34.662 30.3276 34.384 30.1216 34.178L28.1836 32.24C28.0516 32.108 28.0516 31.892 28.1836 31.76L29.7116 30.232ZM25.4436 28.612C25.4436 29.18 25.2176 29.726 24.8156 30.128L23.1616 31.782C23.0416 31.902 23.0416 32.096 23.1616 32.216L25.2276 34.282C25.3676 34.422 25.4456 34.61 25.4456 34.806V37H23.2536C23.0576 37 22.8676 36.922 22.7296 36.782L20.6116 34.664C20.5656 34.618 20.5056 34.596 20.4456 34.596C20.3856 34.596 20.3256 34.618 20.2796 34.664L18.1616 36.782C18.0216 36.922 17.8336 37 17.6376 37H15.4456V34.806C15.4456 34.61 15.5236 34.42 15.6636 34.282L17.7816 32.164C17.8736 32.072 17.8736 31.926 17.7816 31.834L16.0756 30.128C15.6736 29.726 15.4476 29.18 15.4476 28.612V27H17.6396C17.8356 27 18.0256 27.078 18.1636 27.218L20.2816 29.336C20.3276 29.382 20.3876 29.404 20.4476 29.404C20.5076 29.404 20.5676 29.382 20.6136 29.336L22.7316 27.218C22.8716 27.078 23.0596 27 23.2556 27H25.4476V28.612H25.4436Z" fill="#2B3039" fill-opacity="0.5"/>
</g>
</g>
</g>
</svg>
