<svg width="122" height="64" viewBox="0 0 122 64" fill="none" xmlns="http://www.w3.org/2000/svg">
<mask id="mask0_103_1507" style="mask-type:luminance" maskUnits="userSpaceOnUse" x="19" y="21" width="84" height="22">
<path d="M102.365 21H19.2534V43H102.365V21Z" fill="white"/>
</mask>
<g mask="url(#mask0_103_1507)">
<mask id="mask1_103_1507" style="mask-type:luminance" maskUnits="userSpaceOnUse" x="19" y="20" width="84" height="23">
<path d="M102.365 20.998H19.2534V42.998H102.365V20.998Z" fill="white"/>
</mask>
<g mask="url(#mask1_103_1507)">
<path d="M26.8798 25.0425C26.2035 25.0425 25.5353 25.1565 24.8998 25.401C24.3013 25.6272 23.7606 25.9836 23.3167 26.4444C22.8728 26.9052 22.5368 27.4589 22.3331 28.0654C22.0764 28.7869 21.9522 29.5487 21.9665 30.3143C21.9499 31.0608 22.0601 31.8047 22.2924 32.5143C22.4813 33.1004 22.8031 33.6348 23.2329 34.0758C23.6626 34.5168 24.1885 34.8525 24.7694 35.0565C25.4213 35.2765 26.1139 35.3825 26.8065 35.3825C27.9113 35.3843 29.01 35.2194 30.0657 34.8936V37.1262C28.9528 37.4421 27.8002 37.5958 26.6435 37.5825C25.5435 37.5988 24.4598 37.4195 23.425 37.0691C22.568 36.7729 21.7888 36.2872 21.1455 35.648C20.5022 35.009 20.0113 34.2331 19.7094 33.378C19.3916 32.441 19.2368 31.4632 19.2531 30.4773C19.2368 29.4506 19.4161 28.4402 19.742 27.4625C20.0425 26.5552 20.5371 25.7244 21.1915 25.0278C21.8459 24.3313 22.6442 23.7857 23.5309 23.4291C24.5504 23.0285 25.6378 22.8292 26.7331 22.8425C27.3035 22.8425 27.8902 22.8832 28.4605 22.9647C28.9576 23.038 29.4465 23.1521 29.9272 23.3069V25.5151C28.9396 25.2111 27.9131 25.0519 26.8798 25.0425ZM38.5398 36.1973H38.499C37.9288 36.7774 37.2189 37.2011 36.4376 37.4277C35.6445 37.6353 34.8074 37.6012 34.0339 37.3299C33.629 37.187 33.2576 36.963 32.9423 36.6717C32.6271 36.3802 32.3747 36.0275 32.2005 35.6351C32.02 35.2017 31.9311 34.7356 31.9398 34.2662C31.9212 33.7745 32.0159 33.2851 32.2165 32.8358C32.4171 32.3866 32.7183 31.9894 33.0968 31.6751C33.4813 31.3584 33.9243 31.1203 34.4005 30.9743C34.9546 30.8114 35.5168 30.7299 36.0953 30.738C36.8514 30.7368 37.6045 30.8326 38.3361 31.0232V30.6158C38.3361 30.3714 38.2953 30.1432 38.2057 29.9151C38.1242 29.6951 37.9939 29.4914 37.8146 29.3284C37.6027 29.1328 37.3502 29.0025 37.0813 28.9128C36.7309 28.7988 36.3724 28.7499 36.0057 28.7499C35.4847 28.7538 34.9657 28.8139 34.4576 28.9291C33.8953 29.0595 33.3494 29.2306 32.8116 29.4343V27.4625C33.3413 27.2343 33.9035 27.0551 34.4739 26.941C35.0768 26.8188 35.6961 26.7617 36.3072 26.7536C36.9801 26.744 37.6507 26.8374 38.2953 27.0306C38.8168 27.1854 39.3057 27.438 39.7213 27.7884C40.0961 28.098 40.3894 28.4891 40.585 28.9291C40.7724 29.3773 40.8702 29.8662 40.8702 30.3632V34.2336C40.8658 35.2497 40.8875 36.2659 40.9353 37.281H38.6539L38.5398 36.1973ZM38.3361 32.9136C38.0916 32.8565 37.8146 32.8077 37.4968 32.7588C37.1811 32.7134 36.8624 32.6915 36.5435 32.6936C36.03 32.6663 35.5198 32.791 35.0768 33.0521C34.8988 33.1763 34.7558 33.3442 34.6616 33.5398C34.5674 33.7353 34.5252 33.9518 34.539 34.1684C34.5227 34.3802 34.5635 34.5921 34.6368 34.7877C34.7183 34.9506 34.8324 35.0973 34.9627 35.2114C35.1176 35.3254 35.2887 35.4151 35.4598 35.4721C35.8934 35.5837 36.349 35.5781 36.7798 35.4558C37.3758 35.287 37.9124 34.9538 38.3279 34.4943L38.3361 32.9136ZM42.4427 27.0306H45.1724L46.7287 30.7462C47.1664 31.7829 47.582 32.8288 47.9753 33.8832H48.0161C48.1953 33.3536 48.5783 32.3677 49.1568 30.9336L50.762 27.0225H53.5161L46.8183 42.2188H44.3168L46.6961 36.7188L42.4427 27.0225V27.0306ZM64.9479 32.164C64.9561 32.9136 64.8339 33.6632 64.5894 34.3721C64.364 35.0014 64.0077 35.5757 63.5443 36.0575C63.0809 36.5392 62.5206 36.9173 61.9005 37.1669C61.2097 37.4349 60.474 37.5676 59.7331 37.558C58.9815 37.5692 58.2348 37.4365 57.5331 37.1669C56.9133 36.9276 56.352 36.558 55.8872 36.0832C55.4227 35.5943 55.0724 35.0077 54.8524 34.3721C54.6045 33.6653 54.4805 32.9211 54.4857 32.1721C54.4776 31.4143 54.5998 30.6728 54.8524 29.964C55.0724 29.3202 55.4228 28.7417 55.8953 28.2447C56.3616 27.7716 56.9224 27.4023 57.5413 27.161C58.2295 26.8941 58.9624 26.7613 59.7005 26.7699C60.4502 26.7617 61.1998 26.8921 61.9005 27.161C62.5198 27.4054 63.082 27.7721 63.5465 28.2447C64.0109 28.7336 64.3613 29.3202 64.5894 29.9558C64.8339 30.6647 64.9561 31.4143 64.9479 32.164ZM62.3242 32.164C62.3242 31.6751 62.2672 31.1862 62.1287 30.7217C62.0146 30.3388 61.8353 29.9884 61.5909 29.6625C61.3703 29.3909 61.0882 29.1758 60.7679 29.0351C60.4339 28.8884 60.0753 28.8151 59.7087 28.8232C59.3583 28.8232 58.9998 28.8884 58.6739 29.0351C58.3479 29.1736 58.0709 29.3936 57.859 29.6706C57.6146 29.9802 57.4272 30.3388 57.3213 30.7217C57.1847 31.1901 57.1188 31.6761 57.1257 32.164C57.1257 32.6528 57.1828 33.1417 57.3213 33.6143C57.4272 33.9891 57.6146 34.3477 57.859 34.6573C58.079 34.9262 58.3642 35.1462 58.6902 35.2928C59.0161 35.4395 59.3746 35.5128 59.7331 35.5128C60.0916 35.5128 60.4502 35.4395 60.7761 35.2928C61.0939 35.1462 61.3709 34.9262 61.5909 34.6573C61.8353 34.3477 62.0146 33.9891 62.1205 33.6143C62.259 33.1417 62.3242 32.6528 62.3242 32.164ZM71.8087 34.3151C71.8167 34.1146 71.7466 33.9189 71.6131 33.7691C71.475 33.6154 71.3055 33.4932 71.1161 33.4106C70.8856 33.306 70.6454 33.2242 70.399 33.1662C70.1302 33.0847 69.8531 33.0195 69.5516 32.9462C69.1931 32.8484 68.8346 32.7262 68.4842 32.5877C68.1583 32.4654 67.8487 32.2862 67.5798 32.0743C67.3109 31.8543 67.099 31.5854 66.9524 31.2758C66.7894 30.901 66.7079 30.4936 66.7242 30.0862C66.7079 29.5728 66.8139 29.0677 67.0339 28.5951C67.2294 28.1877 67.5227 27.8373 67.8731 27.5602C68.2479 27.2751 68.6635 27.0714 69.1116 26.941C69.6005 26.8025 70.0894 26.7373 70.6028 26.7373C71.7265 26.7297 72.8431 26.9171 73.9028 27.2914V29.3365L73.1694 29.1165C72.925 29.0514 72.6642 29.0025 72.3709 28.9699C71.8641 28.8845 71.3525 28.8301 70.839 28.8069C70.5783 28.7988 70.3257 28.8232 70.0731 28.8884C69.8939 28.9291 69.7227 29.0106 69.5761 29.1084C69.4539 29.1899 69.3561 29.3121 69.2909 29.4343C69.2339 29.5647 69.2094 29.6951 69.2094 29.8254C69.2013 30.0373 69.2665 30.2328 69.3968 30.3958C69.5353 30.5588 69.7146 30.681 69.9102 30.7625C70.1383 30.8521 70.3746 30.9254 70.6109 30.9906L71.3198 31.1617C71.6865 31.2432 72.0368 31.3491 72.3953 31.4714C72.7457 31.5854 73.0716 31.7565 73.365 31.9765C73.6583 32.2047 73.8946 32.4899 74.0657 32.8158C74.2613 33.2232 74.3509 33.6714 74.3346 34.1195C74.3509 34.641 74.2368 35.1625 74.0087 35.6351C73.7887 36.0669 73.4709 36.4417 73.0798 36.7188C72.647 37.0226 72.1604 37.2411 71.6457 37.3625C70.4577 37.6185 69.2306 37.6351 68.0361 37.4114C67.5879 37.3316 67.1505 37.2003 66.7324 37.0202V34.9914C67.2213 35.1869 67.7346 35.3336 68.2561 35.4232C68.6961 35.5047 69.1361 35.5373 69.5761 35.5373C69.8694 35.5373 70.1709 35.521 70.4642 35.4721C70.7087 35.4314 70.9368 35.358 71.1568 35.2521C71.3442 35.1706 71.5072 35.0484 71.6294 34.8936C71.7516 34.7306 71.8168 34.5188 71.8005 34.3151H71.8087ZM86.4265 32.164C86.4428 32.9217 86.3124 33.6632 86.0598 34.3721C85.8398 35.0077 85.4894 35.5943 85.0168 36.0832C84.5506 36.5563 83.9897 36.9256 83.3709 37.1669C82.6827 37.4338 81.9498 37.5666 81.2116 37.558C80.4601 37.5684 79.7135 37.4356 79.0116 37.1669C78.3918 36.9276 77.8305 36.558 77.3657 36.0832C76.9046 35.5917 76.5521 35.0087 76.3309 34.3721C76.0812 33.6657 75.9571 32.9212 75.9642 32.1721C75.9642 31.4143 76.0783 30.6728 76.3309 29.9721C76.559 29.3284 76.9176 28.7499 77.382 28.261C77.8476 27.7852 78.4085 27.4131 79.0279 27.1691C79.7142 26.906 80.4442 26.776 81.179 26.7862C81.9368 26.7699 82.6783 26.9002 83.379 27.1691C84.0065 27.4136 84.5687 27.7802 85.0331 28.2528C85.4894 28.7417 85.8479 29.3284 86.0679 29.964C86.3124 30.6728 86.4346 31.4225 86.4265 32.164ZM83.8028 32.164C83.8028 31.6751 83.7457 31.1862 83.6072 30.7217C83.4931 30.3388 83.3139 29.9884 83.0694 29.6706C82.8475 29.395 82.5624 29.177 82.2383 29.0351C81.9124 28.8884 81.5539 28.8232 81.1872 28.8232C80.8368 28.8232 80.4783 28.8884 80.1605 29.0351C79.8346 29.1817 79.5494 29.3936 79.3294 29.6706C79.085 29.9802 78.9057 30.3388 78.7998 30.7136C78.6624 31.1845 78.5965 31.6734 78.6042 32.164C78.5961 32.6528 78.6613 33.1417 78.7998 33.6143C78.9057 33.9891 79.085 34.3395 79.3294 34.641C79.5576 34.918 79.8346 35.1299 80.1605 35.2765C80.4865 35.4232 80.845 35.5047 81.2035 35.4965C81.562 35.4965 81.9205 35.4314 82.2465 35.2765C82.5642 35.1299 82.8413 34.918 83.0613 34.641C83.3057 34.3395 83.4931 33.9891 83.6072 33.6143C83.7457 33.1417 83.8109 32.661 83.7946 32.1721L83.8028 32.164ZM95.202 23.9832C94.925 23.9017 94.6316 23.8528 94.3383 23.804C94.0607 23.7594 93.7802 23.7349 93.4991 23.7306C93.2383 23.7306 92.9857 23.7632 92.7331 23.8365C92.5213 23.9017 92.3257 24.0158 92.1709 24.1625C92.0079 24.3417 91.8857 24.5454 91.8205 24.7736C91.739 25.0669 91.6983 25.3684 91.7065 25.6699V27.0306H94.5909V29.1002H91.7065V37.2973H89.1561V29.0921H87.3961V27.0225H89.1561V25.8084C89.1398 25.181 89.2457 24.5454 89.4657 23.9506C89.645 23.4617 89.9465 23.0217 90.3294 22.6714C90.6961 22.3373 91.1442 22.0847 91.6168 21.938C92.1383 21.7751 92.6761 21.6936 93.2302 21.7017C93.9025 21.6976 94.5711 21.8022 95.2102 22.0114V23.9914L95.202 23.9832Z" fill="#2B3039" fill-opacity="0.5"/>
<path d="M102.259 37.2802C101.566 37.4576 100.855 37.5507 100.14 37.5573C99.4065 37.5817 98.6732 37.4432 97.9969 37.1336C97.4746 36.8881 97.0582 36.4629 96.8235 35.9358C96.6402 35.4496 96.557 34.9313 96.5791 34.4121V29.0832H94.6235V27.0299H96.5628V24.1454H99.105V27.0299H102.112V29.0913H99.0969V34.0862C99.0806 34.3958 99.1458 34.6973 99.2843 34.9662C99.4961 35.2921 99.928 35.455 100.564 35.455C101.138 35.4567 101.709 35.3743 102.259 35.2106V37.2884V37.2802Z" fill="#2B3039" fill-opacity="0.5"/>
</g>
</g>
</svg>
