<svg width="122" height="64" viewBox="0 0 122 64" fill="none" xmlns="http://www.w3.org/2000/svg">
<path d="M52.1488 32.8865H44.7993C44.8561 34.0789 45.7582 35.1154 47.4666 35.1154C48.6949 35.1154 49.4815 34.4629 49.8655 33.7888L51.9372 34.0201C51.6492 35.3455 50.1349 37.2088 47.4459 37.2088C44.4524 37.2088 42.4375 34.9429 42.4375 32.0989C42.4375 29.3902 44.3564 27.1025 47.2932 27.1025C50.2866 27.1025 52.1488 29.4841 52.1488 32.2714V32.8865ZM44.7982 31.2535H49.7881C49.7106 30.1778 48.7713 29.1982 47.2942 29.1982C45.8553 29.1982 44.8572 30.1385 44.7982 31.2535Z" fill="#2B3039" fill-opacity="0.5"/>
<path d="M56.0246 32.1559L52.1475 27.2959H55.0646L57.481 30.5435L59.8973 27.2959H62.8144L58.9373 32.1559L62.8144 37.0159H59.8973L57.481 33.7682L55.0646 37.0159H52.1475L56.0246 32.1559Z" fill="#2B3039" fill-opacity="0.5"/>
<path d="M67.3657 27.1025C69.0348 27.1025 70.3395 27.9862 70.8392 29.1011L70.9733 27.2957H73.2184V37.0178H70.9733L70.8392 35.2124C70.3406 36.3262 69.037 37.2109 67.3657 37.2109C64.5828 37.2109 62.5493 34.9441 62.5493 32.1578C62.5482 29.3705 64.5828 27.1025 67.3657 27.1025ZM67.7682 34.9789C69.4177 34.9789 70.5882 33.6928 70.5882 32.1545C70.5882 30.6175 69.4177 29.3302 67.7682 29.3302C66.0992 29.3302 64.909 30.6164 64.909 32.1545C64.9112 33.6928 66.0992 34.9789 67.7682 34.9789Z" fill="#2B3039" fill-opacity="0.5"/>
<path d="M77.5931 37.0166H75.2334V24.374H77.5931V37.0166Z" fill="#2B3039" fill-opacity="0.5"/>
<path d="M78.7461 32.1557C78.7461 29.3695 80.9148 27.1025 83.965 27.1025C86.9955 27.1025 89.1468 29.3684 89.1468 32.1557C89.1468 34.9418 86.9978 37.2088 83.965 37.2088C80.9138 37.2077 78.7461 34.9418 78.7461 32.1557ZM86.7861 32.1557C86.7861 30.6185 85.6155 29.3314 83.9661 29.3314C82.297 29.3314 81.1068 30.6175 81.1068 32.1557C81.1068 33.6928 82.2981 34.9801 83.9661 34.9801C85.6145 34.9789 86.7861 33.6928 86.7861 32.1557Z" fill="#2B3039" fill-opacity="0.5"/>
<path d="M89.7793 32.1557C89.7793 29.3695 91.948 27.1025 94.9983 27.1025C98.0287 27.1025 100.179 29.3684 100.179 32.1557C100.179 34.9418 98.0287 37.2088 94.9983 37.2088C91.947 37.2077 89.7793 34.9418 89.7793 32.1557ZM97.8183 32.1557C97.8183 30.6185 96.6477 29.3314 94.9983 29.3314C93.3291 29.3314 92.139 30.6175 92.139 32.1557C92.139 33.6928 93.3303 34.9801 94.9983 34.9801C96.6487 34.9789 97.8183 33.6928 97.8183 32.1557Z" fill="#2B3039" fill-opacity="0.5"/>
<path d="M101.274 27.2966H103.499L103.633 29.1021C104.151 27.9871 105.439 27.1035 107.107 27.1035C109.89 27.1035 111.943 29.3694 111.943 32.1566C111.943 34.9428 109.89 37.2097 107.107 37.2097C105.438 37.2097 104.151 36.3261 103.633 35.2111V39.6708H101.274V27.2966ZM106.723 34.9788C108.374 34.9788 109.563 33.6926 109.563 32.1544C109.563 30.6174 108.371 29.3301 106.723 29.3301C105.054 29.3301 103.903 30.6162 103.903 32.1544C103.901 33.6926 105.054 34.9788 106.723 34.9788Z" fill="#2B3039" fill-opacity="0.5"/>
<path d="M29.94 30.4117C29.2222 31.0357 29.0346 32.0208 29.376 32.8335C29.4753 33.0692 29.4164 33.3441 29.2342 33.5252L29.2189 33.5404C29.0379 33.7215 28.7662 33.7827 28.5295 33.6834C27.7615 33.3583 26.8396 33.5088 26.2135 34.135C26.2135 34.135 26.2124 34.1361 26.2092 34.1372C26.2092 34.1372 26.208 34.1383 26.2069 34.1415C25.5807 34.7677 25.4313 35.6939 25.7575 36.463C25.8556 36.6964 25.7946 36.967 25.6167 37.1459L25.6015 37.1612C25.4226 37.3401 25.152 37.4001 24.9175 37.3019C24.3796 37.0739 23.7655 37.0804 23.2299 37.3204C23.0182 37.4164 22.7695 37.3554 22.6036 37.1928L22.5393 37.1284C22.3647 36.9539 22.3299 36.6921 22.4269 36.4641C22.8339 35.4997 22.4979 34.2954 21.4156 33.7347C21.1287 33.5874 20.8069 33.5241 20.4852 33.5241H20.484C20.1819 33.5241 19.8895 33.5874 19.6212 33.7063C19.4095 33.8023 19.1607 33.7423 18.9949 33.5797L18.9273 33.5132C18.7647 33.3495 18.7036 33.1019 18.7996 32.8903C19.044 32.3437 19.0452 31.7121 18.8019 31.1667C18.7092 30.9561 18.768 30.7074 18.9316 30.5437L19.0069 30.4684C19.1695 30.3048 19.4182 30.247 19.6287 30.3408C19.8949 30.4597 20.1862 30.5219 20.4852 30.5219H20.4862C20.8047 30.5219 21.1233 30.4608 21.4069 30.3179C22.1629 29.9307 22.5982 29.203 22.5982 28.4099C22.5982 28.1274 22.5426 27.8535 22.4379 27.5994C22.3364 27.355 22.3953 27.0747 22.5819 26.887C22.7673 26.7015 23.0476 26.6415 23.2887 26.7408C23.5473 26.8488 23.8233 26.9023 24.0982 26.9023C24.3786 26.9023 24.6567 26.8467 24.9196 26.7354C25.1586 26.6339 25.4356 26.6939 25.6189 26.8783C25.8022 27.0615 25.8633 27.3387 25.7607 27.5787C25.5426 28.1001 25.5404 28.6914 25.7553 29.2117C25.8567 29.4539 25.7956 29.7343 25.6092 29.9197C25.4247 30.1052 25.1455 30.1674 24.9033 30.0659C24.1364 29.7474 23.2212 29.8979 22.5993 30.5219C22.2012 30.9223 21.9829 31.4524 21.9829 32.0175C21.9829 32.5827 22.2033 33.1139 22.5993 33.5143C23.0106 33.9255 23.5506 34.1328 24.0916 34.1328C24.6327 34.1328 25.1739 33.9267 25.5862 33.5143C26.2156 32.8837 26.3629 31.9477 26.0269 31.1754C25.9233 30.9375 25.9844 30.6615 26.1666 30.4783C26.3487 30.295 26.6259 30.2361 26.8636 30.3387C27.1309 30.4564 27.42 30.5143 27.7059 30.5143C28.248 30.5143 28.788 30.3081 29.2004 29.8957C29.5986 29.4954 29.8189 28.9652 29.8189 28.4012C29.8189 28.1994 29.7906 28.0041 29.736 27.8164C29.6389 27.4761 29.4579 27.1641 29.2004 26.9067C28.5709 26.2761 27.6382 26.1288 26.868 26.4627C26.6324 26.5641 26.3586 26.5041 26.1764 26.3219C25.9942 26.1397 25.9353 25.8637 26.0367 25.6281C26.3869 24.8165 26.2059 23.8292 25.4924 23.1997C24.7015 22.5026 23.4709 22.5103 22.6876 23.215C22.2382 23.6197 21.9884 24.1848 21.9884 24.7892C21.9884 25.0837 22.0495 25.3695 22.1629 25.6314C22.2666 25.8692 22.2066 26.1463 22.0244 26.3284C21.8412 26.5117 21.564 26.5707 21.3273 26.467C21.0666 26.3535 20.7819 26.2925 20.4852 26.2925H20.484C20.1589 26.2925 19.8327 26.3557 19.5436 26.5063C18.4615 27.0735 18.1298 28.2877 18.5499 29.251C18.648 29.4779 18.6175 29.7408 18.4396 29.9164L18.3775 29.9787C18.2127 30.1434 17.9607 30.2023 17.7491 30.1041C17.4764 29.9787 17.1775 29.9121 16.8687 29.9121H16.8676C16.5458 29.9121 16.224 29.9732 15.9371 30.1215C15.1865 30.5099 14.7578 31.2343 14.7578 32.0263C14.7578 32.5924 14.9782 33.1227 15.3742 33.523C15.7855 33.9343 16.3255 34.1415 16.8665 34.1415C17.1655 34.1415 17.4655 34.0783 17.7415 33.9517C17.9531 33.8547 18.2073 33.9135 18.3709 34.0794L18.4276 34.1361C18.6022 34.3107 18.6372 34.5735 18.5389 34.8004C18.1244 35.7648 18.4549 36.9747 19.536 37.5408C19.824 37.6914 20.1502 37.7547 20.4764 37.7547H20.4775C20.784 37.7547 21.0796 37.6903 21.3513 37.5659C21.5652 37.4688 21.8172 37.5255 21.9807 37.6924L22.0364 37.7481C22.2012 37.9128 22.26 38.1659 22.1629 38.3787C22.0386 38.6492 21.9742 38.9459 21.9742 39.2535C21.9742 39.8197 22.1946 40.3499 22.5906 40.7503C23.0019 41.1615 23.5419 41.3688 24.0829 41.3688C24.624 41.3688 25.1652 41.1627 25.5775 40.7503C26.2102 40.1175 26.3542 39.1815 26.0172 38.4081C25.9135 38.1735 25.9746 37.8997 26.1567 37.7164C26.3389 37.5343 26.6128 37.4754 26.8473 37.5779C27.1168 37.6957 27.4047 37.7557 27.6927 37.7557C28.2349 37.7557 28.7739 37.5495 29.1852 37.1372L29.1873 37.135L29.1895 37.1328C29.8189 36.5023 29.9662 35.5663 29.6302 34.7939C29.5266 34.5561 29.5876 34.2801 29.7699 34.0979C29.952 33.9157 30.2292 33.8557 30.4669 33.9583C30.7342 34.0761 31.02 34.1339 31.3092 34.1339C31.8513 34.1339 32.3913 33.9277 32.8036 33.5154C33.6426 32.6754 33.6273 31.2997 32.7568 30.4804C31.992 29.7408 30.7429 29.7124 29.94 30.4117Z" fill="#2B3039" fill-opacity="0.5"/>
<path d="M31.333 26.3854C31.7442 26.3854 32.1566 26.2282 32.4698 25.9141C33.097 25.2868 33.097 24.2668 32.4698 23.6384C31.8425 23.0112 30.8235 23.0112 30.1962 23.6384C29.8919 23.9428 29.7261 24.3464 29.7261 24.7762C29.7261 25.2061 29.8941 25.6097 30.1962 25.9141C30.5094 26.2293 30.9218 26.3854 31.333 26.3854Z" fill="#2B3039" fill-opacity="0.5"/>
<path d="M31.31 37.6387C30.8803 37.6387 30.4777 37.8067 30.1733 38.11C29.87 38.4132 29.7031 38.8169 29.7031 39.2478C29.7031 39.6776 29.8711 40.0812 30.1733 40.3856C30.4864 40.6987 30.8977 40.8569 31.309 40.8569C31.7203 40.8569 32.1326 40.6998 32.4457 40.3856C33.073 39.7584 33.073 38.7384 32.4467 38.11C32.1446 37.8078 31.741 37.6387 31.31 37.6387Z" fill="#2B3039" fill-opacity="0.5"/>
<path d="M15.7397 38.1091C15.4354 38.4124 15.2695 38.816 15.2695 39.2469C15.2695 39.6767 15.4375 40.0804 15.7397 40.3847C16.0528 40.6979 16.4652 40.856 16.8764 40.856C17.2877 40.856 17.7001 40.6989 18.0121 40.3847C18.6394 39.7574 18.6394 38.7374 18.0121 38.1091C17.3848 37.4819 16.367 37.4819 15.7397 38.1091Z" fill="#2B3039" fill-opacity="0.5"/>
<path d="M16.8784 26.4067C17.2897 26.4067 17.702 26.2496 18.014 25.9354C18.6413 25.3081 18.6413 24.2881 18.0151 23.6597C17.7108 23.3554 17.3082 23.1885 16.8784 23.1885C16.4497 23.1885 16.046 23.3565 15.7417 23.6597C15.4373 23.963 15.2715 24.3667 15.2715 24.7976C15.2715 25.2274 15.4395 25.631 15.7417 25.9354C16.0548 26.2507 16.466 26.4067 16.8784 26.4067Z" fill="#2B3039" fill-opacity="0.5"/>
<path d="M36.4962 30.4033C35.6094 30.4033 34.8872 31.1256 34.8872 32.0136C34.8872 32.9016 35.6094 33.6237 36.4962 33.6237C37.3832 33.6237 38.1042 32.9016 38.1042 32.0136C38.1042 31.1256 37.3832 30.4033 36.4962 30.4033Z" fill="#2B3039" fill-opacity="0.5"/>
<path d="M24.1363 42.8467C23.2515 42.8467 22.5293 43.5688 22.5293 44.4568C22.5293 45.3448 23.2493 46.066 24.1363 46.066C25.0231 46.066 25.7453 45.3448 25.7453 44.4568C25.7443 43.5667 25.022 42.8467 24.1363 42.8467Z" fill="#2B3039" fill-opacity="0.5"/>
<path d="M11.6181 30.4033C10.7312 30.4033 10.0112 31.1244 10.0112 32.0124C10.0112 32.9004 10.7312 33.6226 11.6181 33.6226C12.5051 33.6226 13.2261 32.9004 13.2261 32.0124C13.2261 31.1244 12.504 30.4033 11.6181 30.4033Z" fill="#2B3039" fill-opacity="0.5"/>
<path d="M24.0731 21.1507C24.96 21.1507 25.681 20.4296 25.681 19.5416C25.68 18.6569 24.96 17.9336 24.0731 17.9336C23.1883 17.9336 22.4673 18.6558 22.4673 19.5438C22.4662 20.4318 23.1862 21.1507 24.0731 21.1507Z" fill="#2B3039" fill-opacity="0.5"/>
</svg>
