<svg width="122" height="64" viewBox="0 0 122 64" fill="none" xmlns="http://www.w3.org/2000/svg">
<mask id="mask0_103_1528" style="mask-type:luminance" maskUnits="userSpaceOnUse" x="10" y="21" width="102" height="22">
<path d="M111.721 21H10.6592V43H111.721V21Z" fill="white"/>
</mask>
<g mask="url(#mask0_103_1528)">
<path fill-rule="evenodd" clip-rule="evenodd" d="M18.0578 35.6312C17.8695 35.6548 17.6813 35.6689 17.4882 35.6689C15.6994 35.6689 14.2495 34.5674 14.2495 33.2022C14.2495 31.837 15.6665 30.759 17.4318 30.7355C17.3658 30.5284 17.3376 30.3071 17.3376 30.0906C17.3376 28.5136 19.0417 27.2002 21.1413 27.2002C22.0592 27.2002 22.9536 27.4732 23.7115 27.9864L19.616 33.4235L21.4048 32.9291L18.8957 36.2903C18.5804 36.1255 18.2979 35.8996 18.0626 35.636L18.0578 35.6312ZM26.2252 28.9702C26.8655 29.069 27.3598 29.5916 27.4209 30.2365C27.4209 30.4578 27.3503 30.6696 27.228 30.8532C28.4708 31.2627 29.3275 32.1242 29.3275 33.1269C29.3275 34.5203 27.6563 35.6548 25.5945 35.6548C25.1191 35.6548 24.6436 35.5936 24.1823 35.4665C23.655 36.2527 22.4452 36.794 21.0565 36.794C20.4728 36.7987 19.8937 36.6999 19.3477 36.5021L27.0914 30.4719H24.2435L26.2252 28.9561V28.9749V28.9702Z" fill="#2B3039" fill-opacity="0.5"/>
<path d="M28.0938 42.8435H15.4872C12.9828 42.8388 10.9539 40.8052 10.9492 38.3008V25.6942C10.9539 23.1852 12.9875 21.1562 15.4966 21.1562H28.1032C30.6123 21.1562 32.6459 23.1946 32.6459 25.7037V38.3102C32.6365 40.8193 30.5981 42.8482 28.0938 42.8435ZM15.4966 22.4555C13.7031 22.4555 12.2485 23.9101 12.2438 25.7084V38.3149C12.2438 40.1085 13.7031 41.5631 15.4966 41.5631H28.1032C29.8967 41.5631 31.3513 40.1085 31.3513 38.3149V25.7037C31.3513 23.9101 29.8967 22.4555 28.1032 22.4508H15.4966V22.4555Z" fill="#2B3039" fill-opacity="0.5"/>
<path d="M40.7898 33.0333C40.0837 33.0756 39.3776 32.9344 38.7374 32.6284C38.196 32.2989 37.7958 31.7811 37.6123 31.1738C37.3534 30.2935 37.2357 29.3756 37.2686 28.4576C37.2357 27.5397 37.3534 26.6217 37.6123 25.7414C37.8006 25.1436 38.2007 24.6399 38.7374 24.3151C39.3776 24.0044 40.0884 23.8632 40.7992 23.9102H42.9411V24.9506H40.6957C40.239 24.9317 39.7824 25.0541 39.3964 25.2989C39.0339 25.5531 38.775 25.9344 38.6714 26.3675C38.5208 27.0454 38.4549 27.7374 38.4737 28.4294C38.4549 29.1261 38.5208 29.8181 38.6714 30.496C38.7656 30.9337 39.0245 31.3198 39.3964 31.574C39.7965 31.7905 40.2484 31.8893 40.7004 31.8658H43.1859V32.9862L40.7945 33.0239L40.7898 33.0333Z" fill="#2B3039" fill-opacity="0.5"/>
<path d="M50.7276 33.0475V31.9271H47.5595C47.3383 31.96 47.1123 31.9036 46.9287 31.7671C46.7781 31.6023 46.7027 31.381 46.7216 31.1551V23.915H45.4506V31.3481C45.4364 31.7859 45.5918 32.219 45.8742 32.5532C46.2509 32.911 46.7545 33.0287 47.2771 33.0334L50.7229 33.0475H50.7276Z" fill="#2B3039" fill-opacity="0.5"/>
<path d="M55.7125 23.8667C56.2774 23.8526 56.8424 23.9326 57.3837 24.0974C57.8167 24.2339 58.2028 24.4975 58.4852 24.8553C58.796 25.2743 59.003 25.7591 59.0972 26.2723C59.2384 26.9972 59.2996 27.7363 59.2855 28.4754C59.2949 29.2097 59.2338 29.9487 59.0972 30.669C59.0124 31.1821 58.8054 31.667 58.4994 32.0907C58.2169 32.4484 57.8356 32.7121 57.3978 32.8486C56.3104 33.164 55.1523 33.164 54.0649 32.8486C53.6271 32.7121 53.2412 32.4484 52.9587 32.0907C52.648 31.6717 52.4362 31.1869 52.3467 30.669C52.2055 29.9487 52.1396 29.2097 52.1537 28.4754C52.1396 27.7363 52.2055 26.9972 52.3467 26.2723C52.4362 25.7591 52.648 25.2743 52.9587 24.8553C53.2412 24.5022 53.6224 24.2433 54.0555 24.1068C54.5922 23.9374 55.1571 23.8526 55.7219 23.862L55.7125 23.8667ZM55.7125 24.9824C55.2512 24.9589 54.7899 25.0719 54.385 25.3025C54.032 25.5614 53.7872 25.9427 53.6977 26.3711C53.5424 27.0584 53.4765 27.7598 53.5001 28.4659C53.4812 29.1673 53.5471 29.8687 53.6977 30.5513C53.7825 30.9844 54.0272 31.3704 54.385 31.634C54.7851 31.8647 55.2465 31.9777 55.7125 31.9542C56.1739 31.9777 56.6352 31.8647 57.0353 31.634C57.3931 31.3751 57.6426 30.9938 57.7367 30.5608C57.8921 29.8781 57.9627 29.1768 57.9439 28.4754C57.9627 27.7692 57.8921 27.0631 57.7367 26.3711C57.6473 25.9427 57.4025 25.5567 57.0494 25.2931C56.6446 25.0624 56.1786 24.9495 55.7125 24.9824Z" fill="#2B3039" fill-opacity="0.5"/>
<path d="M68.1687 23.915V29.4887C68.1923 30.1995 68.084 30.9103 67.8534 31.5835C67.6697 32.0825 67.3025 32.492 66.8318 32.7274C66.2339 32.991 65.589 33.1134 64.9347 33.0851C64.2615 33.1134 63.5884 32.991 62.967 32.7274C62.4774 32.4967 62.0961 32.0872 61.9031 31.5835C61.6583 30.915 61.5453 30.1995 61.5736 29.4887V23.915H62.8634V29.4887C62.8493 29.9877 62.9105 30.4867 63.047 30.9621C63.1458 31.2963 63.3718 31.5741 63.6825 31.7341C64.0544 31.8989 64.464 31.9789 64.8735 31.96C65.2783 31.9789 65.6832 31.8989 66.0504 31.7341C66.3516 31.5647 66.5776 31.2916 66.6858 30.9621C66.8365 30.4867 66.9024 29.9877 66.8836 29.4887V23.915H68.1735H68.1687Z" fill="#2B3039" fill-opacity="0.5"/>
<path d="M74.0246 33.032C74.5848 33.0462 75.145 32.9661 75.6816 32.8014C76.11 32.6602 76.4866 32.4013 76.769 32.0482C77.075 31.6339 77.2774 31.149 77.3669 30.6406C77.5034 29.9252 77.5693 29.2002 77.5552 28.4752C77.5693 27.7456 77.5034 27.0206 77.3669 26.3051C77.2774 25.7967 77.075 25.3165 76.769 24.9023C76.4866 24.5492 76.11 24.2856 75.6816 24.1444C75.145 23.9796 74.5848 23.8996 74.0246 23.9137H70.8047V33.032H74.0246ZM72.0946 31.9635V24.9823H74.0199C74.4766 24.9635 74.9331 25.0811 75.3239 25.3165C75.6722 25.5801 75.9123 25.9662 76.0017 26.3945C76.1524 27.0771 76.2183 27.7785 76.1994 28.4752C76.2183 29.1719 76.1524 29.8686 76.0017 30.5512C75.917 30.9796 75.6722 31.3656 75.3239 31.6292C74.9331 31.8693 74.4812 31.9823 74.0246 31.9635H72.0946Z" fill="#2B3039" fill-opacity="0.5"/>
<path d="M79.7254 23.9476L79.6924 33.0188H83.4771C84.0608 33.0377 84.6444 32.9671 85.2096 32.8211C85.6097 32.7176 85.9583 32.4681 86.1886 32.1197C86.4237 31.6866 86.5323 31.197 86.5041 30.7028C86.5371 30.119 86.3914 29.5353 86.0944 29.0316C85.7417 28.5938 85.2144 28.3396 84.6493 28.3443V28.269C85.1154 28.269 85.5581 28.0525 85.8544 27.6947C86.1274 27.2616 86.2546 26.7579 86.2216 26.2448C86.2498 25.7552 86.1418 25.2657 85.9156 24.8279C85.6894 24.4701 85.3319 24.2112 84.9174 24.1076C84.3151 23.9664 83.6936 23.9052 83.0769 23.9287H81.7446L79.7302 23.9476H79.7254ZM82.969 25.3692C83.2468 25.3598 83.5245 25.3928 83.7926 25.4587C83.9762 25.5057 84.1316 25.6281 84.2113 25.7976C84.3055 26.0283 84.3481 26.2778 84.3337 26.5273C84.3433 26.772 84.3055 27.0168 84.2161 27.2475C84.1453 27.417 83.9996 27.5441 83.8208 27.5959C83.5761 27.6665 83.3217 27.6994 83.0673 27.6994H81.6174V25.3551H82.9731L82.9594 25.3692H82.969ZM84.4279 31.1076C84.3433 31.2959 84.1742 31.4371 83.9762 31.4889C83.6984 31.569 83.4111 31.6019 83.1244 31.5925H81.6174V28.9375H83.0721C83.3781 28.9375 83.684 28.9893 83.9762 29.0881C84.1783 29.154 84.3385 29.2999 84.4279 29.4929C84.5269 29.766 84.5695 30.0532 84.5551 30.3403C84.5647 30.6039 84.5221 30.8675 84.4279 31.1123V31.1076Z" fill="#2B3039" fill-opacity="0.5"/>
<path d="M91.9886 23.8523C92.6004 23.8335 93.2075 23.9135 93.796 24.0783C94.2525 24.2054 94.6623 24.4643 94.973 24.8268C95.3023 25.241 95.5237 25.7259 95.6227 26.2437C95.7733 26.9781 95.8441 27.7266 95.8296 28.4797C95.8441 29.2282 95.7733 29.9767 95.6227 30.7111C95.5237 31.2289 95.3023 31.7185 94.973 32.1327C94.6574 32.4905 94.2525 32.7494 93.796 32.8812C92.619 33.1778 91.3904 33.1778 90.2183 32.8812C89.7618 32.7494 89.3479 32.4905 89.0323 32.1327C88.6982 31.7185 88.4768 31.2336 88.3778 30.7111C88.2224 29.9767 88.1564 29.2282 88.1709 28.4797C88.1564 27.7313 88.2273 26.9781 88.3778 26.2437C88.4768 25.7259 88.703 25.2363 89.0323 24.8268C89.3479 24.469 89.7569 24.2101 90.2183 24.0783C90.793 23.9135 91.3904 23.8382 91.9886 23.8523ZM91.9886 25.4105C91.6166 25.3869 91.2447 25.4858 90.9243 25.6835C90.6376 25.9189 90.4493 26.2484 90.3881 26.6156C90.2609 27.2276 90.2093 27.8537 90.2231 28.4797C90.2093 29.1011 90.2609 29.7225 90.3881 30.3345C90.4493 30.7017 90.6424 31.0359 90.9243 31.2713C91.2447 31.469 91.6118 31.5631 91.9886 31.5443C92.3605 31.5678 92.7228 31.469 93.0384 31.2713C93.3251 31.0359 93.5183 30.7017 93.5794 30.3345C93.697 29.7225 93.7541 29.1011 93.7396 28.4797C93.7541 27.8537 93.7018 27.2276 93.5794 26.6156C93.5134 26.2484 93.3251 25.9189 93.0384 25.6835C92.7276 25.4858 92.3605 25.3917 91.9886 25.4105Z" fill="#2B3039" fill-opacity="0.5"/>
<path d="M103.569 33.0333V31.4139H100.467C100.278 31.4233 100.094 31.3669 99.948 31.2444C99.8215 31.1126 99.7555 30.9385 99.7692 30.7549V23.9385H97.8016V31.1786C97.783 31.6728 97.9618 32.153 98.2959 32.5155C98.6864 32.8873 99.2137 33.038 99.7555 33.038H103.569V33.0333Z" fill="#2B3039" fill-opacity="0.5"/>
<path d="M110.638 23.9287H107.96H105.987H103.323V25.4775H105.987V33.0329H107.96V25.4775H110.638V23.9287Z" fill="#2B3039" fill-opacity="0.5"/>
<path d="M40.6347 35.2881V35.6318H37.5278V35.2881H40.6347ZM39.2743 35.2881V39.3695H38.8836V35.2881H39.2743Z" fill="#2B3039" fill-opacity="0.5"/>
<path d="M41.6517 35.2266V36.4176C41.6564 36.5352 41.6517 36.6482 41.647 36.7565C41.6376 36.8648 41.6281 36.9589 41.6093 37.0484L41.6517 37.1378V39.3738H41.2798V35.2313H41.6517V35.2266ZM42.9415 36.427C43.4594 36.427 43.7183 36.6906 43.7183 37.2131V39.3692H43.3417V37.3167C43.3417 37.1096 43.304 36.9683 43.2286 36.8836C43.1534 36.7989 43.0262 36.7565 42.8521 36.7565C42.6591 36.7565 42.4661 36.7989 42.2824 36.8883C42.0942 36.9778 41.8729 37.1049 41.6187 37.2743L41.6046 36.9966C41.8353 36.8224 42.0612 36.6859 42.2872 36.5823C42.5132 36.4788 42.7344 36.427 42.951 36.427H42.9415Z" fill="#2B3039" fill-opacity="0.5"/>
<path d="M45.8362 36.4277C46.2457 36.4277 46.547 36.5031 46.74 36.6537C46.933 36.8043 47.0272 37.0256 47.0319 37.3222C47.0319 37.5763 46.9848 37.7741 46.8859 37.9153C46.7824 38.0518 46.6129 38.1224 46.3728 38.1224H44.7111V37.8258H46.2928C46.4388 37.8258 46.5376 37.7788 46.5894 37.6846C46.6412 37.5905 46.6647 37.4728 46.66 37.3316C46.66 37.1244 46.5894 36.9785 46.467 36.889C46.3399 36.7996 46.1374 36.7573 45.8644 36.7573C45.6338 36.7573 45.4549 36.7949 45.3184 36.8655C45.1819 36.9361 45.0877 37.0538 45.0359 37.2233C44.9794 37.3928 44.9512 37.6188 44.9512 37.9059C44.9512 38.226 44.9842 38.4708 45.05 38.6497C45.116 38.8238 45.2242 38.9463 45.3701 39.0169C45.5161 39.0875 45.7091 39.1204 45.9445 39.1204C46.1092 39.1204 46.2834 39.1157 46.4623 39.1016C46.6412 39.0875 46.7965 39.0734 46.933 39.0498L46.9754 39.304C46.8907 39.337 46.7871 39.3605 46.66 39.3793C46.5329 39.3981 46.4011 39.417 46.2646 39.4264C46.128 39.4358 46.0056 39.4452 45.9021 39.4452C45.5773 39.4452 45.3184 39.3935 45.1254 39.2946C44.9276 39.1957 44.7864 39.031 44.697 38.8097C44.6075 38.5885 44.5605 38.2919 44.5605 37.9294C44.5605 37.5669 44.6028 37.261 44.6922 37.0397C44.7817 36.8232 44.9182 36.6678 45.1112 36.5737C45.2995 36.4795 45.549 36.4325 45.8503 36.4325L45.8362 36.4277Z" fill="#2B3039" fill-opacity="0.5"/>
<path d="M50.3792 36.4277C50.4592 36.4277 50.5487 36.4277 50.6523 36.4419C50.7558 36.4513 50.8593 36.4607 50.9676 36.4795C51.0759 36.4983 51.1748 36.5219 51.2642 36.5549L51.2124 36.8043C51.0901 36.7903 50.9582 36.7761 50.8123 36.7667C50.6664 36.7573 50.544 36.7526 50.4451 36.7526C50.1956 36.7526 49.9979 36.7855 49.8519 36.8561C49.7061 36.9267 49.5978 37.0444 49.5318 37.2186C49.466 37.3928 49.433 37.6282 49.433 37.9294C49.433 38.2307 49.466 38.4708 49.5318 38.645C49.5978 38.8191 49.7013 38.9415 49.8519 39.0074C49.9979 39.078 50.2003 39.111 50.4451 39.111C50.5063 39.111 50.5817 39.111 50.6758 39.1063C50.77 39.1063 50.8688 39.0969 50.977 39.0875C51.0853 39.078 51.1842 39.0686 51.2783 39.0498L51.3254 39.304C51.1842 39.3464 51.0288 39.3793 50.8688 39.4029C50.704 39.4264 50.544 39.4358 50.3792 39.4358C50.0544 39.4358 49.7955 39.3887 49.5978 39.2899C49.4001 39.191 49.2588 39.031 49.1694 38.8145C49.08 38.5979 49.0376 38.3013 49.0376 37.9294C49.0376 37.5575 49.08 37.2704 49.1694 37.0492C49.2588 36.8279 49.4001 36.6678 49.5978 36.5737C49.7955 36.4748 50.0591 36.4277 50.3839 36.4277H50.3792Z" fill="#2B3039" fill-opacity="0.5"/>
<path d="M52.4269 35.2266V38.6536C52.4222 38.7901 52.4599 38.8984 52.5352 38.969C52.6105 39.0396 52.7141 39.0772 52.8506 39.0772H53.1519L53.1942 39.355C53.1613 39.3692 53.1189 39.3786 53.0578 39.388C52.9966 39.3974 52.9401 39.4068 52.8789 39.4115C52.8177 39.4162 52.7658 39.4209 52.7235 39.4209C52.5211 39.4209 52.361 39.3597 52.2433 39.242C52.121 39.1243 52.0645 38.9549 52.0645 38.7336V35.2313H52.4363L52.4269 35.2266Z" fill="#2B3039" fill-opacity="0.5"/>
<path d="M54.9265 36.4277C55.2466 36.4277 55.5007 36.4748 55.6938 36.5737C55.8868 36.6726 56.028 36.8326 56.1128 37.0538C56.1975 37.2751 56.2398 37.5669 56.2398 37.9341C56.2398 38.3013 56.1975 38.5932 56.1128 38.8145C56.028 39.0357 55.8868 39.1957 55.6938 39.2946C55.5007 39.3935 55.2418 39.4405 54.9265 39.4405C54.6111 39.4405 54.3521 39.3935 54.1592 39.2946C53.9661 39.1957 53.8249 39.0357 53.7402 38.8145C53.6554 38.5932 53.6084 38.3013 53.6084 37.9341C53.6084 37.5669 53.6508 37.2751 53.7402 37.0538C53.8249 36.8326 53.9661 36.6726 54.1592 36.5737C54.3521 36.4748 54.6111 36.4277 54.9265 36.4277ZM54.9265 36.7526C54.6958 36.7526 54.5122 36.7903 54.3757 36.8609C54.2392 36.9315 54.145 37.0538 54.0886 37.2233C54.032 37.3928 54.0038 37.6329 54.0038 37.9294C54.0038 38.226 54.032 38.4708 54.0886 38.645C54.145 38.8191 54.2392 38.9415 54.3757 39.0121C54.5075 39.0827 54.6911 39.1204 54.9265 39.1204C55.1618 39.1204 55.336 39.0827 55.4726 39.0121C55.609 38.9415 55.7032 38.8191 55.7644 38.645C55.8208 38.4708 55.8491 38.2307 55.8491 37.9294C55.8491 37.6282 55.8208 37.3928 55.7644 37.2233C55.7079 37.0538 55.609 36.9315 55.4726 36.8609C55.336 36.7903 55.1524 36.7526 54.9265 36.7526Z" fill="#2B3039" fill-opacity="0.5"/>
<path d="M57.4499 36.502V38.5638C57.4499 38.7616 57.4875 38.9028 57.5722 38.9922C57.657 39.0769 57.7935 39.124 57.9771 39.124C58.1607 39.124 58.3301 39.0817 58.4996 38.9922C58.6691 38.9074 58.8762 38.7804 59.1163 38.6203L59.1586 38.8934C58.928 39.0769 58.7067 39.2182 58.4949 39.3123C58.283 39.4064 58.0665 39.4535 57.85 39.4535C57.3322 39.4535 57.0732 39.1899 57.0732 38.6674V36.5067H57.4451L57.4499 36.502ZM59.4506 36.502V39.3735H59.154L59.1163 38.8368L59.0739 38.7474V36.5067H59.4458L59.4506 36.502Z" fill="#2B3039" fill-opacity="0.5"/>
<path d="M61.3758 36.427C61.5641 36.427 61.7523 36.4505 61.9454 36.5023C62.1337 36.5541 62.322 36.6294 62.5009 36.7283L62.482 36.9778C62.2749 36.9118 62.096 36.8554 61.9406 36.8177C61.7853 36.78 61.6205 36.7565 61.4511 36.7565C61.2675 36.7565 61.1215 36.7895 61.0086 36.8601C60.8956 36.9307 60.8155 37.0484 60.7638 37.2178C60.712 37.3873 60.6885 37.6227 60.6885 37.924C60.6885 38.2252 60.712 38.4606 60.7638 38.6301C60.8155 38.7996 60.8956 38.9219 61.0038 38.9972C61.1121 39.0726 61.2533 39.1055 61.4276 39.1055C61.5499 39.1055 61.6629 39.0867 61.7617 39.0537C61.8606 39.0208 61.9689 38.9643 62.0866 38.889C62.1995 38.8137 62.3314 38.7195 62.482 38.6113L62.5102 38.8937C62.3313 39.0537 62.1431 39.1809 61.95 39.2797C61.7523 39.3786 61.5452 39.4303 61.3239 39.4303C60.9615 39.4303 60.7026 39.308 60.5425 39.0585C60.3825 38.8137 60.3071 38.4324 60.3071 37.9192C60.3071 37.5474 60.3448 37.2555 60.4248 37.0343C60.5002 36.813 60.6179 36.6577 60.7732 36.5588C60.9286 36.4599 61.131 36.4128 61.3805 36.4128L61.3758 36.427ZM62.8068 35.2266V39.3692H62.515L62.4679 38.8654L62.4302 38.8278V36.846L62.4585 36.7565C62.4444 36.6482 62.4349 36.5446 62.4302 36.4505C62.4302 36.3564 62.4302 36.2528 62.4302 36.1445V35.2266H62.8021H62.8068Z" fill="#2B3039" fill-opacity="0.5"/>
<path d="M66.5679 35.2309C66.874 35.2309 67.114 35.2638 67.3023 35.3344C67.4859 35.405 67.6224 35.5227 67.7071 35.6875C67.7919 35.857 67.8343 36.0923 67.8343 36.3983C67.8343 36.629 67.8107 36.8173 67.7589 36.9633C67.7071 37.1091 67.6271 37.2268 67.5142 37.3022C67.4059 37.3822 67.2599 37.434 67.081 37.4622V37.4858C67.147 37.5046 67.2129 37.5423 67.2788 37.594C67.3399 37.6458 67.4012 37.7117 67.4482 37.787C67.5 37.867 67.5377 37.9565 67.5659 38.0648L67.9802 39.3593H67.5659L67.1752 38.0742C67.1187 37.9047 67.0434 37.7823 66.9492 37.7117C66.8504 37.6411 66.7327 37.6035 66.5868 37.6035C66.3561 37.6035 66.149 37.6035 65.9701 37.6035C65.7912 37.6035 65.6406 37.5987 65.5229 37.594C65.4052 37.594 65.3157 37.5846 65.2545 37.5799L65.2734 37.2645H66.5585C66.7798 37.2645 66.954 37.2363 67.081 37.1845C67.2081 37.1374 67.3023 37.048 67.3541 36.9256C67.4105 36.8032 67.4388 36.629 67.4388 36.4078C67.4388 36.1865 67.4105 36.0076 67.3541 35.8853C67.2976 35.7628 67.2081 35.6781 67.081 35.631C66.954 35.5839 66.7798 35.5604 66.5585 35.5604C66.2431 35.5604 65.9701 35.5604 65.7394 35.5604C65.5088 35.5604 65.3582 35.5651 65.2781 35.5698L65.1934 35.2686C65.3393 35.2544 65.4758 35.2403 65.6029 35.2309C65.73 35.2215 65.8666 35.2168 66.0219 35.2168C66.1725 35.2168 66.3561 35.2168 66.5679 35.2168V35.2309ZM65.5794 35.2827V39.364H65.1934V35.2827H65.5794Z" fill="#2B3039" fill-opacity="0.5"/>
<path d="M70.2494 35.207C70.5412 35.207 70.786 35.2447 70.9884 35.3153C71.1908 35.3906 71.3509 35.5083 71.4733 35.6683C71.5957 35.8331 71.6851 36.0496 71.7416 36.3227C71.7981 36.5957 71.8263 36.93 71.8263 37.3207C71.8263 37.7114 71.7981 38.0503 71.7416 38.3187C71.6851 38.5917 71.5957 38.8082 71.4733 38.973C71.3509 39.1377 71.1908 39.2554 70.9884 39.326C70.786 39.4013 70.5412 39.4343 70.2494 39.4343C69.9575 39.4343 69.7127 39.3967 69.5103 39.326C69.3078 39.2507 69.1478 39.1331 69.0254 38.973C68.903 38.8082 68.8136 38.5917 68.7571 38.3187C68.7006 38.0456 68.6724 37.7114 68.6724 37.3207C68.6724 36.93 68.7006 36.591 68.7571 36.3227C68.8136 36.0496 68.903 35.8331 69.0254 35.6683C69.1478 35.5036 69.3078 35.3859 69.5103 35.3153C69.7127 35.24 69.9575 35.207 70.2494 35.207ZM70.2494 35.5554C69.9575 35.5554 69.7268 35.6118 69.5526 35.7249C69.3832 35.8378 69.2608 36.0214 69.1902 36.2803C69.1195 36.5345 69.0819 36.8876 69.0819 37.3301C69.0819 37.7726 69.1195 38.1209 69.1902 38.3798C69.2608 38.634 69.3832 38.8223 69.5526 38.9353C69.7221 39.0483 69.9575 39.1048 70.2494 39.1048C70.5412 39.1048 70.7719 39.0483 70.9413 38.9353C71.1108 38.8223 71.2332 38.6388 71.3038 38.3798C71.3744 38.1257 71.4121 37.7726 71.4121 37.3301C71.4121 36.8876 71.3744 36.5392 71.3038 36.2803C71.2285 36.0261 71.1108 35.8378 70.9413 35.7249C70.7719 35.6118 70.5412 35.5554 70.2494 35.5554Z" fill="#2B3039" fill-opacity="0.5"/>
<path d="M73.1536 35.2881V39.3695H72.7676V35.2881H73.1536Z" fill="#2B3039" fill-opacity="0.5"/>
<path d="M76.7361 36.4277C76.8161 36.4277 76.9056 36.4277 77.0091 36.4419C77.1127 36.4513 77.2163 36.4607 77.3246 36.4795C77.4328 36.4983 77.5317 36.5219 77.6211 36.5549L77.5694 36.8043C77.4469 36.7903 77.3151 36.7761 77.1692 36.7667C77.0233 36.7573 76.9009 36.7526 76.8021 36.7526C76.5526 36.7526 76.3548 36.7855 76.2089 36.8561C76.063 36.9267 75.9547 37.0444 75.8888 37.2186C75.8229 37.3928 75.7899 37.6282 75.7899 37.9294C75.7899 38.2307 75.8229 38.4708 75.8888 38.645C75.9547 38.8191 76.0582 38.9415 76.2089 39.0074C76.3548 39.078 76.5572 39.111 76.8021 39.111C76.8632 39.111 76.9385 39.111 77.0327 39.1063C77.1268 39.1063 77.2257 39.0969 77.334 39.0875C77.4423 39.078 77.5411 39.0686 77.6352 39.0498L77.6823 39.304C77.5411 39.3464 77.3857 39.3793 77.2257 39.4029C77.061 39.4264 76.9009 39.4358 76.7361 39.4358C76.4113 39.4358 76.1524 39.3887 75.9547 39.2899C75.757 39.191 75.6158 39.031 75.5263 38.8145C75.4369 38.5979 75.3945 38.3013 75.3945 37.9294C75.3945 37.5575 75.4369 37.2704 75.5263 37.0492C75.6158 36.8279 75.757 36.6678 75.9547 36.5737C76.1524 36.4748 76.416 36.4277 76.7409 36.4277H76.7361Z" fill="#2B3039" fill-opacity="0.5"/>
<path d="M79.5324 36.4277C79.8527 36.4277 80.1064 36.4748 80.2996 36.5737C80.4928 36.6726 80.6337 36.8326 80.719 37.0538C80.8036 37.2751 80.8455 37.5669 80.8455 37.9341C80.8455 38.3013 80.8036 38.5932 80.719 38.8145C80.6337 39.0357 80.4928 39.1957 80.2996 39.2946C80.1064 39.3935 79.8479 39.4405 79.5324 39.4405C79.2171 39.4405 78.9582 39.3935 78.7651 39.2946C78.5721 39.1957 78.4309 39.0357 78.3462 38.8145C78.2615 38.5932 78.2144 38.3013 78.2144 37.9341C78.2144 37.5669 78.2567 37.2751 78.3462 37.0538C78.4309 36.8326 78.5721 36.6726 78.7651 36.5737C78.9582 36.4748 79.2171 36.4277 79.5324 36.4277ZM79.5324 36.7526C79.3018 36.7526 79.1182 36.7903 78.9817 36.8609C78.8451 36.9315 78.751 37.0538 78.6945 37.2233C78.6381 37.3928 78.6098 37.6329 78.6098 37.9294C78.6098 38.226 78.6381 38.4708 78.6945 38.645C78.751 38.8191 78.8451 38.9415 78.9817 39.0121C79.1135 39.0827 79.2971 39.1204 79.5324 39.1204C79.7675 39.1204 79.9421 39.0827 80.0782 39.0121C80.2151 38.9415 80.3092 38.8191 80.3704 38.645C80.4268 38.4708 80.455 38.2307 80.455 37.9294C80.455 37.6282 80.4268 37.3928 80.3704 37.2233C80.3141 37.0538 80.2151 36.9315 80.0782 36.8609C79.9421 36.7903 79.7586 36.7526 79.5324 36.7526Z" fill="#2B3039" fill-opacity="0.5"/>
<path d="M82.0086 36.5031L82.0368 37.0492L82.0746 37.1385V39.3746H81.7026V36.5031H82.0086ZM83.2371 36.4325C83.4771 36.4325 83.6655 36.4983 83.7926 36.6301C83.9246 36.762 83.9858 36.9597 83.9858 37.2186V39.3746H83.6228V37.3222C83.6228 37.1198 83.5809 36.9785 83.4956 36.889C83.4111 36.8043 83.2839 36.7573 83.1148 36.7573C83.0061 36.7573 82.8982 36.7761 82.7896 36.809C82.6816 36.842 82.573 36.8985 82.4506 36.9785C82.3283 37.0538 82.1873 37.1574 82.0223 37.2751L81.999 37.0021C82.2107 36.8138 82.4176 36.6678 82.6205 36.5737C82.8226 36.4748 83.0254 36.4277 83.2323 36.4277L83.2371 36.4325ZM85.1621 36.4325C85.4069 36.4325 85.5953 36.4983 85.7225 36.6349C85.8545 36.7714 85.9205 36.9644 85.9205 37.2186V39.3746H85.5485V37.3222C85.5485 37.1292 85.5011 36.9879 85.4261 36.8938C85.3457 36.8043 85.2192 36.7573 85.0398 36.7573C84.927 36.7573 84.8143 36.7761 84.7105 36.8138C84.6066 36.8514 84.4939 36.9079 84.3763 36.9832C84.2588 37.0585 84.1171 37.1574 83.9576 37.2751L83.9336 37.0021C84.1453 36.8138 84.353 36.6678 84.5599 36.5737C84.762 36.4748 84.9648 36.4277 85.167 36.4277L85.1621 36.4325Z" fill="#2B3039" fill-opacity="0.5"/>
<path d="M87.2005 36.5022L87.2431 37.0765L87.2665 37.1283V39.0207L87.2479 39.0913C87.2617 39.1996 87.2665 39.3032 87.2665 39.3973V40.5742H86.8945V36.4975H87.2005V36.5022ZM88.4201 36.4316C88.7824 36.4316 89.0409 36.554 89.1963 36.8035C89.3517 37.053 89.4273 37.4343 89.4273 37.9474C89.4273 38.3146 89.3895 38.6065 89.3145 38.8277C89.2389 39.049 89.1213 39.2043 88.966 39.3032C88.8058 39.402 88.6037 39.4491 88.3541 39.4491C88.1657 39.4491 87.9773 39.4208 87.789 39.3691C87.6006 39.3173 87.417 39.2373 87.2287 39.1337L87.2479 38.8983C87.4548 38.9643 87.6336 39.0207 87.789 39.0584C87.9443 39.096 88.1093 39.1196 88.2785 39.1196C88.462 39.1196 88.6126 39.0866 88.7212 39.016C88.8292 38.9454 88.9144 38.8277 88.966 38.6582C89.0175 38.4888 89.0409 38.2534 89.0409 37.9521C89.0409 37.6509 89.0175 37.4296 88.966 37.2554C88.9185 37.0859 88.8388 36.9588 88.735 36.8835C88.6318 36.8082 88.4902 36.7658 88.3115 36.7658C88.1465 36.7658 87.9822 36.8082 87.8172 36.8882C87.6528 36.973 87.4597 37.1001 87.2383 37.2742L87.2149 37.0012C87.3325 36.8835 87.4597 36.7799 87.5917 36.6952C87.723 36.6105 87.8598 36.5446 88.0007 36.5022C88.1423 36.4552 88.2833 36.4363 88.4153 36.4363L88.4201 36.4316Z" fill="#2B3039" fill-opacity="0.5"/>
<path d="M92.341 37.6188V37.9012L90.9336 37.9153C90.783 37.9153 90.6744 37.9577 90.6042 38.0377C90.5334 38.113 90.5005 38.2213 90.5005 38.3625V38.612C90.5005 38.772 90.5431 38.8945 90.6228 38.9745C90.7074 39.0545 90.8298 39.0921 90.9996 39.0921C91.1268 39.0921 91.263 39.0733 91.4184 39.0263C91.5737 38.9792 91.7202 38.9086 91.8707 38.8191C92.0213 38.7297 92.1526 38.6214 92.266 38.499V38.7909C92.2186 38.8521 92.1484 38.9133 92.0631 38.9839C91.9737 39.0545 91.8706 39.1251 91.7572 39.191C91.6396 39.2569 91.5125 39.3134 91.3716 39.3558C91.23 39.3981 91.0841 39.4217 90.9384 39.4217C90.7734 39.4217 90.6276 39.3935 90.5053 39.3322C90.3829 39.271 90.2887 39.1863 90.2179 39.0686C90.1478 38.9509 90.1147 38.8097 90.1147 38.645V38.3154C90.1147 38.0942 90.1808 37.9247 90.3121 37.8023C90.4441 37.6799 90.6325 37.6234 90.8725 37.6234H92.341V37.6188ZM91.6211 36.4277C91.8184 36.4277 91.9834 36.456 92.1202 36.5125C92.2563 36.5689 92.3602 36.6631 92.4304 36.7903C92.5012 36.9173 92.5389 37.0915 92.5389 37.308V39.3699H92.2427L92.1814 38.7438L92.1573 38.692V37.3128C92.1573 37.1292 92.1155 36.9927 92.0302 36.8985C91.9457 36.8043 91.7854 36.7573 91.5503 36.7573C91.3763 36.7573 91.1736 36.7667 90.9481 36.7808C90.7171 36.7949 90.4957 36.8184 90.2792 36.842L90.242 36.5643C90.3734 36.5408 90.5197 36.5219 90.6702 36.5031C90.8208 36.4842 90.9762 36.4701 91.1357 36.456C91.2959 36.4419 91.4609 36.4372 91.6211 36.4372V36.4277Z" fill="#2B3039" fill-opacity="0.5"/>
<path d="M93.8193 36.5022L93.8481 37.0483L93.8763 37.1377V39.3738H93.5044V36.5022H93.8193ZM95.1709 36.4316C95.6886 36.4316 95.9471 36.6952 95.9471 37.2177V39.3738H95.5751V37.3213C95.5751 37.1142 95.538 36.973 95.4576 36.8882C95.3778 36.8035 95.2506 36.7612 95.0815 36.7612C94.8883 36.7612 94.7 36.8082 94.5116 36.8976C94.328 36.9871 94.1066 37.1189 93.8481 37.2837L93.8289 37.0059C94.0599 36.8223 94.2902 36.6858 94.5116 36.5869C94.733 36.4881 94.9543 36.4411 95.1709 36.4411V36.4316Z" fill="#2B3039" fill-opacity="0.5"/>
<path d="M96.9599 36.5027L97.8069 38.7435C97.8255 38.8 97.8495 38.8518 97.8681 38.9083C97.8915 38.9647 97.9107 39.0165 97.9245 39.073H98.0468L97.9245 39.3696H97.7883C97.7553 39.3696 97.7271 39.3602 97.7031 39.3413C97.6797 39.3225 97.6611 39.299 97.6467 39.266L96.5591 36.498H96.9599V36.5027ZM99.3744 36.5027L98.1692 39.5767C98.1225 39.6991 98.0661 39.8168 98.0001 39.9298C97.9341 40.0427 97.8585 40.151 97.7643 40.2452C97.6749 40.3393 97.567 40.4193 97.4494 40.4805C97.327 40.5417 97.1902 40.5841 97.03 40.5982L96.9833 40.3534C97.2184 40.2734 97.3972 40.1652 97.5195 40.0239C97.6419 39.8827 97.7409 39.718 97.8213 39.5296L97.9526 39.2095C97.9856 39.1342 98.0138 39.0542 98.042 38.9695C98.0702 38.8847 98.0991 38.8047 98.1273 38.7341L98.9695 36.498H99.3696L99.3744 36.5027Z" fill="#2B3039" fill-opacity="0.5"/>
<path d="M101.685 38.3857V36.7946H101.073V36.498H102.608V36.7946H101.996V38.3857H101.68H101.685Z" fill="#2B3039" fill-opacity="0.5"/>
<path d="M102.82 38.3849V36.502H103.103L103.753 37.8389L104.402 36.502H104.685V38.3849H104.388V37.1752L103.809 38.3849H103.682L103.103 37.1752V38.3849H102.807H102.82Z" fill="#2B3039" fill-opacity="0.5"/>
</g>
</svg>
