<svg width="259" height="270" viewBox="0 0 259 270" fill="none" xmlns="http://www.w3.org/2000/svg">
<path d="M252.956 184.644C253.245 191.469 250.415 196.837 245.892 201.633C237.321 210.72 228.894 219.955 220.426 229.147C210.409 240.009 200.557 251.018 190.354 261.711C177.301 275.383 156.213 269.551 151.504 251.018C149.418 242.84 150.926 235.296 156.812 228.999C162.925 222.469 169.018 215.94 175.132 209.431C178.767 205.564 179.201 199.605 176.185 194.364C173.934 190.455 168.399 188.405 163.752 189.884C162.802 190.18 161.851 190.835 161.149 191.575C146.754 206.938 132.42 222.364 117.983 237.684C114.823 241.023 111.663 244.594 107.862 247.003C95.9864 254.568 81.2396 250.046 75.2706 236.353C71.0159 226.611 72.5236 217.524 79.9797 209.663C88.489 200.704 96.8538 191.638 105.322 182.657C111.849 175.726 109.225 164.801 100.138 162.265C95.9451 161.103 91.9176 162.54 88.8402 165.773C80.0829 175.008 71.429 184.327 62.7131 193.603C58.1073 198.527 53.6254 203.578 48.8337 208.311C42.5756 214.503 34.975 216.933 26.5482 214.397C17.8529 211.777 12.3797 205.564 10.2936 196.477C8.31088 187.813 10.6035 180.46 16.7376 174.036C29.8941 160.215 42.8441 146.184 55.8973 132.237C69.5082 117.699 83.0984 103.139 96.7506 88.6425C102.141 82.9158 100.468 73.5968 93.3014 70.3425C89.1706 68.4618 84.2963 69.3282 81.0537 72.5191C66.9471 86.4448 52.8612 100.413 38.7133 114.296C31.7323 121.143 21.7152 122.96 13.1645 118.713C5.04758 114.698 1.144 107.492 0.152619 98.5955C-0.673534 91.1361 1.88754 84.9445 7.03034 79.5348C25.5155 60.0091 43.8974 40.399 62.2174 20.7043C65.8111 16.8372 69.6528 13.6463 74.7129 12.146C85.6388 8.93394 96.1103 14.555 101.088 24.2333C105.384 32.6014 104.785 40.9273 99.9106 48.8516C97.1637 53.3104 96.8125 57.7692 98.816 62.5872C101.708 69.5395 111.849 70.8497 116.206 65.3554C119.78 60.8544 123.828 56.6915 128.02 52.7821C139.504 42.0895 158.712 44.8366 165.115 62.8619C168.254 71.6738 166.602 79.894 160.117 86.8252C144.853 103.139 129.611 119.452 114.348 135.766C112.695 137.541 111.002 139.274 109.391 141.091C105.57 145.402 105.549 152.967 109.308 157.574C112.819 161.885 119.656 163.174 124.365 159.92C126.926 158.145 128.95 155.545 131.119 153.242C150.017 133.061 168.915 112.881 187.793 92.6787C197.996 81.7747 208.178 70.8919 218.34 59.9457C225.899 51.8312 236.99 49.5278 245.995 54.4304C252.398 57.9171 256.363 63.3268 258.057 70.6595C259.792 78.2035 258.429 84.9656 253.616 90.798C250.188 94.9398 246.367 98.7223 242.691 102.653C225.341 121.185 207.992 139.697 190.643 158.208C186.905 162.181 183.455 166.492 179.387 170.084C173.748 175.05 177.032 183.777 181.245 186.841C186.244 190.455 193.865 189.06 197.314 184.918C202.416 178.811 208.013 173.127 213.589 167.485C219.785 161.209 227.345 158.821 235.813 161.209C244.942 163.766 250.188 170.401 252.48 179.614C252.873 181.22 252.77 182.953 252.873 184.644H252.956Z" fill="white"/>
<path d="M181.432 48.3655C194.345 48.3655 204.813 37.6557 204.813 24.4445C204.813 11.2332 194.345 0.523438 181.432 0.523438C168.52 0.523438 158.052 11.2332 158.052 24.4445C158.052 37.6557 168.52 48.3655 181.432 48.3655Z" fill="white"/>
</svg>
