<svg width="165" height="40" viewBox="0 0 165 40" fill="none" xmlns="http://www.w3.org/2000/svg">
<g clip-path="url(#clip0_84_195)">
<path d="M61.844 33.7552H60.5435V20.9518H51.9792V33.7552H50.6787V19.7518H61.844V33.7552Z" fill="white"/>
<path d="M69.8672 19.75H71.6593L77.3233 33.7533H75.9652L74.5973 30.3933H66.9291L65.5612 33.7533H64.2031L69.8672 19.75ZM67.4207 29.1933H74.1057L70.7912 20.9117H70.7336L67.419 29.1933H67.4207Z" fill="white"/>
<path d="M77.9895 33.8717L77.9023 33.8333V32.5933C78.121 32.645 78.3265 32.6717 78.5189 32.6717C79.0384 32.6717 79.4281 32.48 79.6846 32.095C79.8326 31.8533 79.9444 31.6583 80.0216 31.5083C80.1186 31.2933 80.1976 31.0367 80.2617 30.7367C80.3521 30.2817 80.4031 30.02 80.4162 29.955C80.4425 29.785 80.4803 29.505 80.5313 29.115L81.7743 19.75H90.3385V33.7533H89.038V20.95H82.9597L81.8713 29.1133C81.6526 30.8133 81.3188 32.0433 80.87 32.805C80.4211 33.5667 79.6747 33.9483 78.6356 33.9483C78.4301 33.9483 78.2147 33.9217 77.9895 33.87V33.8717Z" fill="white"/>
<path d="M94.2793 33.755V19.7517H95.5798V24.6733H99.4813C101.196 24.6733 102.513 25.0667 103.431 25.855C104.35 26.6433 104.808 27.7633 104.808 29.215C104.808 30.6667 104.351 31.795 103.435 32.58C102.52 33.365 101.203 33.7567 99.4813 33.7567H94.2793V33.755ZM99.4813 25.8733H95.5798V32.5533H99.4813C100.779 32.5533 101.768 32.27 102.449 31.7033C103.13 31.1367 103.47 30.3067 103.47 29.2133C103.47 28.12 103.13 27.29 102.449 26.7233C101.768 26.1567 100.779 25.8733 99.4813 25.8733Z" fill="white"/>
<path d="M120.589 21.255H120.531L115.858 29.8383H114.191L109.519 21.255H109.461V33.755H108.161V19.7517H110.193L115 28.6583H115.048L119.855 19.7517H121.887V33.755H120.587V21.255H120.589Z" fill="white"/>
<path d="M135.878 21.1767H135.82L127.795 33.755H125.84V19.7517H127.141V32.34H127.198L135.233 19.7517H137.18V33.755H135.879V21.1767H135.878Z" fill="white"/>
<path d="M146.137 29.4967H142.428V33.755H141.127V19.7517H146.137C147.859 19.7517 149.18 20.1717 150.101 21.0117C151.022 21.8517 151.484 23.06 151.484 24.635C151.484 26.21 151.023 27.415 150.101 28.2483C149.179 29.0817 147.859 29.4983 146.137 29.4983V29.4967ZM142.428 20.9517V28.295H146.137C147.421 28.295 148.411 27.9817 149.105 27.3583C149.799 26.735 150.145 25.825 150.145 24.6333C150.145 23.4417 149.799 22.53 149.105 21.8983C148.411 21.2667 147.423 20.9517 146.137 20.9517H142.428Z" fill="white"/>
<path d="M157.544 19.75H159.336L165 33.7533H163.642L162.274 30.3933H154.606L153.238 33.7533H151.88L157.544 19.75ZM155.097 29.1933H161.782L158.468 20.9117H158.41L155.096 29.1933H155.097Z" fill="white"/>
<path d="M50.4271 9.27167C49.9864 8.83167 49.7661 8.23333 49.7661 7.47667C49.7661 6.72 49.9864 6.12333 50.4271 5.67833C50.866 5.23833 51.4612 5.01833 52.2109 5.01833C52.9607 5.01833 53.5098 5.205 53.9488 5.57833C54.3861 5.95167 54.6031 6.42167 54.6031 6.98667H53.4638C53.4621 6.96 53.4555 6.92333 53.444 6.87667C53.4325 6.82833 53.4029 6.74667 53.352 6.63333C53.2944 6.515 53.227 6.41333 53.1481 6.32667C53.0675 6.23833 52.9459 6.15667 52.7831 6.08333C52.617 6.01167 52.4247 5.97667 52.2109 5.97667C51.7867 5.97667 51.4596 6.11833 51.2261 6.4C50.9926 6.68333 50.8775 7.04167 50.8775 7.47833C50.8775 7.915 50.9943 8.275 51.2294 8.56C51.4612 8.84333 51.7884 8.98333 52.2109 8.98333C52.4165 8.98333 52.6039 8.95 52.7699 8.88333C52.936 8.81667 53.0642 8.73167 53.1514 8.62667C53.3273 8.41833 53.4243 8.23333 53.444 8.07333L53.4638 7.97333H54.6031C54.6031 8.54 54.3845 9.00833 53.9488 9.37833C53.5098 9.75167 52.9311 9.93833 52.2109 9.93833C51.4908 9.93833 50.8644 9.71667 50.4271 9.275V9.27167Z" fill="white"/>
<path d="M65.8422 9.86833H64.7751V6.02833H62.5769V9.86833H61.5132V5.08333H65.8422V9.86833Z" fill="white"/>
<path d="M76.6199 9.86833H72.7529V5.08333H76.6199V5.995H73.815V6.98H76.1809V7.855H73.815V8.96333H76.6199V9.87167V9.86833Z" fill="white"/>
<path d="M88.2749 10.9633H87.2079V9.86833H83.5283V5.08333H84.5921V8.92333H86.5535V5.08333H87.6206V8.92333H88.2749V10.9617V10.9633Z" fill="white"/>
<path d="M99.417 5.67833C99.8577 6.12333 100.078 6.72333 100.078 7.47667C100.078 8.23 99.8577 8.83167 99.417 9.27167C98.9781 9.715 98.3829 9.935 97.6299 9.935C96.8769 9.935 96.2833 9.71333 95.846 9.27167C95.4054 8.83167 95.1851 8.23333 95.1851 7.47667C95.1851 6.72 95.4054 6.12333 95.846 5.67833C96.285 5.23833 96.8802 5.01833 97.6299 5.01833C98.3796 5.01833 98.9764 5.23833 99.417 5.67833ZM97.6332 8.98167C98.0574 8.98167 98.3845 8.84 98.618 8.55833C98.8498 8.275 98.9666 7.915 98.9666 7.47667C98.9666 7.03833 98.8498 6.68167 98.618 6.39833C98.3845 6.11667 98.0574 5.975 97.6332 5.975C97.209 5.975 96.8818 6.11667 96.6483 6.39833C96.4132 6.68333 96.2965 7.04167 96.2965 7.47667C96.2965 7.91167 96.4132 8.27333 96.6483 8.55833C96.8802 8.84167 97.209 8.98167 97.6332 8.98167Z" fill="white"/>
<path d="M108.055 10.9633H106.988V8.96167H107.238C107.396 8.96167 107.518 8.88667 107.602 8.73833C107.685 8.59 107.745 8.36167 107.777 8.05833L108.1 5.085H111.631V8.96167H112.286V10.9633H111.219V9.86833H108.052V10.9633H108.055ZM108.453 8.91833V8.96167H110.569V5.995H109.071L108.828 8.14C108.79 8.42 108.734 8.61833 108.657 8.73333C108.593 8.82833 108.534 8.88833 108.48 8.91L108.453 8.91667V8.91833Z" fill="white"/>
<path d="M123.065 9.86833H119.198V5.08333H123.065V5.995H120.26V6.98H122.626V7.855H120.26V8.96333H123.065V9.87167V9.86833Z" fill="white"/>
<path d="M129.975 9.86833L131.841 7.45667L130.084 5.085H131.351L133.01 7.39667V5.085H134.074V7.39667L135.733 5.085H137L135.24 7.45667L137.109 9.86833H135.841L134.074 7.51V9.86833H133.01V7.51L131.243 9.86833H129.975Z" fill="white"/>
<path d="M145.083 10.9633H144.016V8.96167H144.266C144.424 8.96167 144.546 8.88667 144.629 8.73833C144.713 8.59 144.772 8.36167 144.805 8.05833L145.128 5.085H148.659V8.96167H149.313V10.9633H148.246V9.86833H145.08V10.9633H145.083ZM145.481 8.91833V8.96167H147.597V5.995H146.099L145.856 8.14C145.818 8.42 145.762 8.61833 145.685 8.73333C145.621 8.82833 145.562 8.88833 145.507 8.91L145.481 8.91667V8.91833Z" fill="white"/>
<path d="M158.127 5.08333H159.494L161.396 9.86833H160.276L159.944 9.04167H157.667L157.345 9.86833H156.225L158.127 5.08333ZM158.019 8.16667H159.596L158.843 6.15167H158.773L158.02 8.16667H158.019Z" fill="white"/>
<path fill-rule="evenodd" clip-rule="evenodd" d="M2.5895 3.55465C0 6.50741 0 11.0049 0 20C0 28.9951 0 33.4926 2.5895 36.4453C2.88981 36.7878 3.21221 37.1102 3.55465 37.4105C6.50741 40 11.0049 40 20 40C28.9951 40 33.4926 40 36.4453 37.4105C36.7878 37.1102 37.1102 36.7878 37.4105 36.4453C40 33.4926 40 28.9951 40 20C40 11.0049 40 6.50741 37.4105 3.55465C37.1102 3.21221 36.7878 2.88981 36.4453 2.5895C33.4926 0 28.9951 0 20 0C11.0049 0 6.50741 0 3.55465 2.5895C3.21221 2.88981 2.88981 3.21221 2.5895 3.55465ZM27.2925 12.8424C28.1524 13.69 29.5501 13.69 30.41 12.8424C31.2718 11.9984 31.2718 10.6304 30.41 9.78281C29.5482 8.93885 28.1506 8.93885 27.2925 9.78281C26.4307 10.6304 26.4307 11.9984 27.2925 12.8424ZM30.7433 23.8807C31.6032 23.0331 32.999 23.0331 33.8608 23.8807C34.7188 24.7229 34.7188 26.0927 33.8608 26.9403L29.7968 30.9233C28.935 31.7709 27.5392 31.7709 26.6793 30.9233C25.8175 30.0776 25.8194 28.7113 26.6793 27.8638L27.9295 26.6381C28.1819 26.3907 28.2805 26.026 28.1871 25.6851L28.1749 25.6407C28.0904 25.3322 27.8476 25.0924 27.5381 25.0117C27.2338 24.9323 26.9102 25.0185 26.6858 25.2388L17.6068 34.151C16.745 34.9931 15.3492 34.9931 14.4893 34.151C13.6275 33.3034 13.6293 31.9336 14.4893 31.0914L17.9318 27.7112C18.1894 27.4583 18.2904 27.086 18.1961 26.7376L18.1763 26.6646C18.0951 26.3645 17.8596 26.1308 17.5589 26.0518C17.2631 25.9741 16.9483 26.0577 16.7301 26.272L12.3772 30.5456C11.5154 31.3878 10.1196 31.3878 9.25787 30.5456C8.39978 29.6999 8.39978 28.33 9.25787 27.4861L19.23 17.7009C19.4693 17.4661 19.5628 17.1202 19.4744 16.7969C19.3875 16.4789 19.1379 16.2313 18.8193 16.1468L18.8063 16.1434C18.4828 16.0576 18.1379 16.1487 17.8991 16.3832L8.97982 25.1385C8.11989 25.9807 6.72227 25.9807 5.86234 25.1385C5.00241 24.291 5.00241 22.9211 5.86234 22.0789L11.4331 16.6082C11.6454 16.3998 11.7283 16.0928 11.6499 15.8059C11.5724 15.5221 11.3491 15.3015 11.0644 15.2275L10.9341 15.1936C10.5761 15.1005 10.1956 15.2019 9.93138 15.4607L9.31127 16.0682C8.45318 16.9122 7.05741 16.9122 6.19747 16.0682C5.3357 15.2225 5.3357 13.8526 6.19747 13.005L11.5946 7.70635C12.4545 6.86239 13.8522 6.86239 14.7121 7.70635C15.572 8.55392 15.572 9.92196 14.7121 10.7659L12.1361 13.2956C11.8722 13.5547 11.7692 13.9363 11.8666 14.293L11.8929 14.3892C11.9727 14.6812 12.2021 14.9085 12.4947 14.9857C12.7838 15.0619 13.0916 14.9803 13.305 14.7709L22.3925 5.85036C23.2543 5.0064 24.6519 5.0064 25.51 5.85036C26.3718 6.69613 26.3718 8.06598 25.51 8.91355L19.9315 14.3868C19.6944 14.6194 19.6016 14.9619 19.6889 15.2824C19.7747 15.5977 20.0218 15.8435 20.3375 15.9278L20.3583 15.9333C20.6844 16.0203 21.0322 15.9286 21.2731 15.6922L22.6706 14.3207C23.5305 13.4767 24.9282 13.4767 25.7881 14.3207C26.648 15.1628 26.648 16.5363 25.7881 17.3802L18.6341 24.3979C18.4159 24.612 18.3305 24.9273 18.4107 25.2222C18.4898 25.5127 18.7176 25.7391 19.0086 25.8163L19.1135 25.8442C19.4659 25.9378 19.8416 25.8385 20.1018 25.5831L31.0195 14.8646C31.8813 14.0207 33.277 14.0207 34.137 14.8646C34.9987 15.7122 34.9969 17.0803 34.137 17.9278L28.6307 23.3301C28.4071 23.5495 28.3196 23.8729 28.4022 24.1751C28.4835 24.4728 28.7173 24.7045 29.0156 24.7832L29.0959 24.8044C29.4392 24.8951 29.8049 24.7985 30.0588 24.5502L30.7433 23.8807Z" fill="white"/>
</g>
<defs>
<clipPath id="clip0_84_195">
<rect width="165" height="40" fill="white"/>
</clipPath>
</defs>
</svg>
