<svg width="170" height="171" viewBox="0 0 170 171" fill="none" xmlns="http://www.w3.org/2000/svg">
<g clip-path="url(#clip0_83_145)">
<path d="M116.63 15.7335L120.051 17.2717L123.638 9.22275L124.858 9.77052L120.781 18.915L110.272 14.1907L114.348 5.04623L115.574 5.59625L111.988 13.6452L115.405 15.1812L118.992 7.13225L120.216 7.68227L116.63 15.7312V15.7335Z" fill="white"/>
<path d="M135.387 20.033C135.227 20.261 135.036 20.4488 134.817 20.5941C134.597 20.7417 134.388 20.8311 134.187 20.8669C133.807 20.9318 133.488 20.9318 133.235 20.8669L133.092 20.8155L133.061 20.8602C133.099 20.8937 133.15 20.9474 133.212 21.019C133.27 21.0883 133.364 21.2314 133.491 21.4482C133.609 21.6517 133.698 21.873 133.756 22.1145C133.8 22.3403 133.793 22.6198 133.736 22.9552C133.675 23.2905 133.533 23.6192 133.306 23.9412C132.215 25.4928 130.67 25.5621 128.673 24.1446L125.009 21.5444L130.764 13.3613L134.223 15.8162C136.055 17.1264 136.445 18.5327 135.39 20.0307L135.387 20.033ZM131.258 20.4667L128.689 18.6445L126.79 21.3431L129.359 23.1653C129.987 23.6125 130.53 23.8338 130.986 23.8316C131.443 23.8316 131.832 23.5969 132.159 23.1318C132.794 22.2308 132.493 21.3409 131.258 20.4645V20.4667ZM131.167 15.1231L129.363 17.6853L131.728 19.3622C132.268 19.7468 132.749 19.9256 133.17 19.9033C133.591 19.8787 133.949 19.6529 134.243 19.2236C134.838 18.3784 134.599 17.5713 133.529 16.8L131.164 15.1231H131.167Z" fill="white"/>
<path d="M140.481 34.5747L135.147 29.2803L142.157 22.1525L147.491 27.4469L146.65 28.301L142.271 23.9546L140.125 26.1367L143.896 29.8795L143.054 30.7336L139.283 26.9908L136.941 29.372L141.32 33.7184L140.479 34.5725L140.481 34.5747Z" fill="white"/>
<path d="M154.599 38.9524L154.57 38.9122L144.599 39.6321L143.477 38.0581L151.585 32.2226L152.366 33.3182L145.439 38.3041L145.463 38.3376L155.436 37.6221L156.554 39.1894L148.446 45.0249L147.667 43.9339L154.595 38.948L154.599 38.9524ZM156.585 36.1823C156.08 36.0347 155.601 35.6412 155.145 35.0018C154.688 34.3623 154.472 33.7788 154.495 33.2511C154.512 32.7235 154.771 32.2785 155.272 31.9186L155.345 31.8649L155.973 32.7458L155.899 32.7995C155.383 33.1706 155.385 33.7229 155.906 34.454C156.425 35.1806 156.941 35.3595 157.46 34.9861L157.533 34.9324L158.166 35.8178L158.092 35.8715C157.591 36.2315 157.088 36.3365 156.585 36.1823Z" fill="white"/>
<path d="M154.622 57.076L154.047 55.8575L158.192 53.8878L155.701 48.6023L151.556 50.572L150.982 49.3535L160 45.0674L160.574 46.286L156.783 48.088L159.274 53.3735L163.065 51.5714L163.64 52.79L154.622 57.076Z" fill="white"/>
<path d="M157.876 62.4733C158.564 61.3554 159.644 60.6019 161.115 60.2173C162.582 59.8328 163.891 59.958 165.038 60.5974C166.184 61.2257 166.95 62.281 167.335 63.7656C167.72 65.2435 167.567 66.5425 166.874 67.6626C166.178 68.7783 165.098 69.5295 163.633 69.9119C162.166 70.2964 160.859 70.1734 159.711 69.5385C158.562 68.9013 157.796 67.8437 157.411 66.3636C157.026 64.8813 157.179 63.5845 157.874 62.4733H157.876ZM158.598 66.0528C158.88 67.1439 159.457 67.9041 160.327 68.3356C161.198 68.7671 162.182 68.8387 163.281 68.5502C164.386 68.2618 165.212 67.714 165.759 66.9114C166.305 66.1132 166.434 65.1675 166.151 64.0719C165.866 62.9763 165.292 62.2139 164.428 61.7869C163.557 61.3554 162.571 61.2838 161.467 61.5745C160.367 61.8629 159.544 62.4084 158.996 63.2111C158.448 64.0138 158.315 64.9618 158.598 66.0528Z" fill="white"/>
<path d="M160.056 83.3804L159.466 75.8726L169.41 75.0833L170 82.5912L168.807 82.6851L168.321 76.5209L165.276 76.7624L165.692 82.0703L164.499 82.1642L164.083 76.8563L160.761 77.1201L161.247 83.2843L160.053 83.3782L160.056 83.3804Z" fill="white"/>
<path d="M158.197 102.376L158.424 101.046L167.077 102.53L168.036 96.8893L159.383 95.4047L159.61 94.0744L169.443 95.7624L168.032 104.062L158.199 102.374L158.197 102.376Z" fill="white"/>
<path d="M158.355 111.804L159.183 109.475L156.445 108.493L156.897 107.223L166.293 110.588L165.016 114.188C164.577 115.424 163.96 116.263 163.168 116.701C162.375 117.139 161.434 117.164 160.347 116.772C159.259 116.383 158.546 115.766 158.208 114.923C157.87 114.08 157.921 113.041 158.359 111.802L158.355 111.804ZM164.713 111.456L160.309 109.879L159.481 112.209C159.199 113.007 159.165 113.683 159.386 114.233C159.606 114.785 160.08 115.189 160.81 115.451C161.541 115.713 162.164 115.699 162.683 115.413C163.201 115.127 163.602 114.584 163.885 113.785L164.713 111.456Z" fill="white"/>
<path d="M152.936 120.493C154.207 120.18 155.503 120.406 156.821 121.166C158.134 121.926 158.978 122.937 159.352 124.202C159.728 125.459 159.537 126.749 158.776 128.077C158.016 129.4 156.999 130.219 155.723 130.529C154.446 130.833 153.152 130.608 151.843 129.85C150.53 129.09 149.684 128.079 149.31 126.82C148.938 125.557 149.13 124.262 149.889 122.939C150.65 121.611 151.665 120.795 152.936 120.493ZM150.951 123.551C150.39 124.528 150.269 125.476 150.588 126.398C150.906 127.319 151.556 128.063 152.542 128.631C153.531 129.204 154.501 129.396 155.454 129.21C156.4 129.027 157.155 128.443 157.716 127.462C158.279 126.48 158.402 125.535 158.085 124.62C157.767 123.699 157.115 122.954 156.126 122.382C155.142 121.812 154.174 121.62 153.221 121.807C152.268 121.993 151.514 122.574 150.953 123.551H150.951Z" fill="white"/>
<path d="M146.549 142.225L146.581 142.187L143.5 132.636L144.753 131.164L152.335 137.675L151.463 138.699L144.987 133.136L144.96 133.168L148.037 142.724L146.788 144.188L139.205 137.677L140.073 136.658L146.549 142.221V142.225Z" fill="white"/>
<path d="M131.416 148.297C130.844 147.607 130.683 146.811 130.931 145.914C131.182 145.015 131.768 144.181 132.689 143.414C133.606 142.65 134.535 142.229 135.47 142.151C136.4 142.073 137.146 142.375 137.707 143.057L138.054 143.477L137.026 144.333L136.679 143.913C136.318 143.475 135.853 143.309 135.283 143.414C134.711 143.515 134.105 143.833 133.471 144.36C132.836 144.89 132.418 145.431 132.217 145.983C132.019 146.531 132.093 147.016 132.442 147.439C132.801 147.873 133.259 148.052 133.816 147.976C134.37 147.895 134.962 147.591 135.594 147.066L136.527 146.29L137.282 147.204L136.329 147.998C135.748 148.483 135.392 148.966 135.265 149.451C135.138 149.936 135.232 150.37 135.55 150.752C135.844 151.108 136.262 151.255 136.808 151.193C137.351 151.121 137.923 150.835 138.522 150.337C139.136 149.825 139.521 149.31 139.679 148.792C139.837 148.273 139.746 147.81 139.408 147.401L139.225 147.18L140.258 146.319L140.441 146.54C140.991 147.206 141.164 147.976 140.962 148.847C140.761 149.715 140.209 150.527 139.303 151.282C138.41 152.025 137.518 152.423 136.627 152.474C135.737 152.519 135.033 152.23 134.519 151.607C134.321 151.365 134.176 151.112 134.083 150.844C133.989 150.576 133.956 150.332 133.98 150.113C134.029 149.697 134.123 149.368 134.261 149.127L134.357 148.993L134.299 148.924C134.13 149.011 133.911 149.082 133.646 149.14C133.413 149.185 133.183 149.199 132.961 149.185C132.72 149.163 132.455 149.076 132.173 148.926C131.89 148.776 131.636 148.566 131.414 148.295L131.416 148.297Z" fill="white"/>
<path d="M122.894 158.877C122.754 158.636 122.665 158.383 122.622 158.122C122.582 157.86 122.587 157.63 122.638 157.433C122.738 157.057 122.87 156.767 123.036 156.563L123.141 156.454L123.112 156.405C123.065 156.427 122.996 156.449 122.905 156.476C122.818 156.501 122.649 156.525 122.402 156.552C122.168 156.574 121.93 156.563 121.69 156.514C121.467 156.46 121.215 156.337 120.937 156.145C120.659 155.953 120.421 155.685 120.223 155.34C119.272 153.697 119.855 152.259 121.97 151.027L125.85 148.765L130.857 157.431L127.193 159.566C125.243 160.691 123.809 160.46 122.892 158.873L122.894 158.877ZM124.223 154.927L126.943 153.342L125.292 150.482L122.571 152.067C121.906 152.456 121.478 152.859 121.289 153.274C121.1 153.69 121.149 154.144 121.434 154.636C121.986 155.591 122.914 155.687 124.223 154.924V154.927ZM129.096 157.071L127.529 154.357L125.027 155.814C124.452 156.15 124.089 156.512 123.936 156.905C123.782 157.299 123.838 157.719 124.103 158.169C124.619 159.063 125.45 159.181 126.594 158.526L129.096 157.069V157.071Z" fill="white"/>
<path d="M114.103 156.425C115.274 157.013 116.115 158.026 116.63 159.463C117.142 160.896 117.133 162.215 116.603 163.423C116.082 164.626 115.102 165.484 113.667 166.003C112.235 166.519 110.933 166.481 109.76 165.889C108.591 165.292 107.749 164.277 107.24 162.848C106.728 161.415 106.734 160.096 107.26 158.891C107.789 157.686 108.771 156.825 110.203 156.308C111.638 155.79 112.939 155.83 114.103 156.425ZM110.617 157.467C109.559 157.847 108.856 158.491 108.506 159.401C108.157 160.311 108.172 161.301 108.555 162.374C108.94 163.452 109.557 164.23 110.401 164.708C111.24 165.182 112.191 165.229 113.25 164.847C114.31 164.465 115.016 163.823 115.363 162.92C115.712 162.012 115.697 161.017 115.312 159.939C114.929 158.866 114.314 158.09 113.468 157.612C112.622 157.133 111.672 157.086 110.614 157.467H110.617Z" fill="white"/>
<path d="M100.677 156.809L102.001 156.592L102.582 160.179L102.046 160.266C101.374 160.375 101.073 161.18 101.147 162.678L101.445 169.299L94.9911 170.354L93.5797 161.652L92.1861 161.88L91.6051 158.294L92.9297 158.077L93.3193 160.476L101.064 159.208L100.675 156.809H100.677ZM96.1198 168.952L100.06 168.306L99.8264 162.602C99.7974 161.965 99.842 161.471 99.96 161.122C100.056 160.843 100.151 160.673 100.245 160.615L100.296 160.579L100.292 160.552L94.9021 161.435L96.122 168.952H96.1198Z" fill="white"/>
<path d="M83.5596 161.932C82.9853 161.923 82.471 162.012 82.0169 162.2C81.5694 162.383 81.2266 162.616 80.9906 162.895C80.5187 163.461 80.2293 163.968 80.1246 164.418L80.0645 164.717L78.6865 164.695C78.6999 163.886 79.0783 163.043 79.8197 162.171C80.1937 161.73 80.7057 161.373 81.3535 161.1C82.0169 160.823 82.7582 160.691 83.5797 160.702C85.1046 160.726 86.309 161.223 87.1883 162.193C88.0766 163.159 88.5084 164.404 88.484 165.931C88.4595 167.454 87.9875 168.686 87.0681 169.625C86.1576 170.566 84.9399 171.022 83.4149 170.998C82.5935 170.984 81.8566 170.828 81.2021 170.528C80.5521 170.22 80.0534 169.846 79.7039 169.406C78.9893 168.514 78.6398 167.657 78.6531 166.839L80.0311 166.861C80.0311 166.861 80.04 166.897 80.0445 166.942C80.049 166.987 80.0601 167.047 80.0801 167.128C80.1002 167.208 80.1269 167.306 80.1625 167.423C80.3005 167.839 80.5142 168.23 80.8036 168.592C81.1665 169.055 81.6585 169.386 82.2774 169.587C82.638 169.699 83.0231 169.759 83.4372 169.766C84.5636 169.784 85.4497 169.433 86.0908 168.713C86.7386 167.986 87.0703 167.052 87.0904 165.907C87.1082 164.767 86.8054 163.823 86.1821 163.076C85.5588 162.329 84.6861 161.947 83.5641 161.929L83.5596 161.932Z" fill="white"/>
<path d="M70.2672 168.398L73.7845 169.048L73.5686 170.231L65.2293 168.69L65.4452 167.508L68.9493 168.156L70.5387 159.483L71.8589 159.727L70.2694 168.4L70.2672 168.398Z" fill="white"/>
<path d="M53.5463 161.994C53.6398 161.73 53.7734 161.5 53.947 161.299C54.1207 161.098 54.2987 160.954 54.4813 160.867C54.8308 160.702 55.138 160.617 55.4007 160.612L55.5521 160.621L55.5699 160.568C55.5231 160.545 55.4608 160.51 55.3807 160.456C55.305 160.404 55.1781 160.29 54.9978 160.118C54.8308 159.953 54.6861 159.763 54.5659 159.548C54.4613 159.342 54.3945 159.07 54.3611 158.732C54.3299 158.394 54.3789 158.039 54.5125 157.666C55.1514 155.877 56.6207 155.396 58.9225 156.226L63.1456 157.748L59.7752 167.179L55.7881 165.741C53.6732 164.97 52.9252 163.72 53.5418 161.992L53.5463 161.994ZM58.9203 165.594L59.9755 162.64L57.2507 161.659C56.6273 161.433 56.1153 161.388 55.7168 161.525C55.3183 161.661 55.0334 161.974 54.862 162.468C54.5147 163.441 54.9577 164.156 56.1955 164.612L58.9203 165.594ZM57.411 160.469L60.3695 161.536L61.4804 158.426L58.5218 157.359C57.7983 157.098 57.215 157.031 56.7765 157.154C56.3379 157.277 56.024 157.607 55.8326 158.142C55.4608 159.181 55.9862 159.957 57.411 160.469Z" fill="white"/>
<path d="M49.7529 153.666C50.0601 154.942 49.8331 156.244 49.0695 157.565C48.3081 158.882 47.2974 159.727 46.0396 160.096C44.7885 160.472 43.5018 160.275 42.1839 159.506C40.8682 158.739 40.0579 157.715 39.7529 156.434C39.4546 155.15 39.6839 153.851 40.443 152.539C41.2044 151.222 42.2128 150.377 43.4684 150.003C44.7284 149.632 46.0152 149.831 47.3308 150.598C48.651 151.367 49.4591 152.389 49.7574 153.668L49.7529 153.666ZM46.7119 151.66C45.7413 151.094 44.7974 150.969 43.8802 151.287C42.9631 151.604 42.2195 152.255 41.6496 153.243C41.0775 154.234 40.8816 155.208 41.0641 156.165C41.2445 157.116 41.821 157.876 42.7961 158.444C43.7712 159.012 44.7151 159.139 45.6256 158.824C46.5428 158.506 47.2885 157.853 47.8607 156.863C48.4306 155.875 48.6242 154.904 48.4439 153.947C48.2614 152.99 47.6848 152.23 46.7142 151.665L46.7119 151.66Z" fill="white"/>
<path d="M23.9982 141.199C24.1941 141.002 24.4145 140.85 24.6549 140.743C24.8953 140.635 25.118 140.582 25.3205 140.582C25.7079 140.582 26.0218 140.638 26.26 140.745L26.3936 140.819L26.4336 140.778C26.4002 140.738 26.3602 140.678 26.3112 140.595C26.2644 140.517 26.1977 140.36 26.1108 140.126C26.0285 139.904 25.9795 139.672 25.9639 139.424C25.9572 139.193 26.0107 138.918 26.1264 138.598C26.2422 138.279 26.4381 137.979 26.7164 137.7C28.0543 136.356 29.5881 136.553 31.3156 138.29L34.488 141.478L27.431 148.559L24.4367 145.55C22.8539 143.944 22.7092 142.493 24.0004 141.197L23.9982 141.199ZM27.3263 146.759L29.5369 144.541L27.4911 142.484C27.0213 142.013 26.5783 141.753 26.1598 141.706C25.7413 141.659 25.3517 141.82 24.9866 142.191C24.2587 142.923 24.3566 143.759 25.2805 144.702L27.3263 146.759ZM28.1411 141.478L30.3628 143.712L32.6914 141.375L30.4697 139.142C29.9265 138.594 29.4278 138.283 28.9804 138.207C28.5307 138.131 28.1055 138.294 27.707 138.697C26.9301 139.477 27.0748 140.405 28.1433 141.478H28.1411Z" fill="white"/>
<path d="M18.9025 123.703C18.6131 123.205 18.2725 122.809 17.8784 122.516C17.4911 122.226 17.1149 122.051 16.7542 121.993C16.0285 121.879 15.4452 121.892 15.0089 122.033L14.7217 122.136L14.0294 120.94C14.7262 120.533 15.6411 120.424 16.7676 120.611C17.3375 120.705 17.9051 120.96 18.4728 121.378C19.0516 121.805 19.5481 122.375 19.9599 123.089C20.7257 124.414 20.9238 125.705 20.5498 126.961C20.187 128.224 19.3455 129.239 18.0298 130.006C16.7186 130.771 15.4252 131.001 14.1474 130.695C12.8762 130.398 11.8566 129.586 11.0908 128.26C10.679 127.547 10.4319 126.831 10.3495 126.116C10.2783 125.398 10.3384 124.774 10.532 124.247C10.9238 123.171 11.4737 122.429 12.1794 122.018L12.8718 123.214C12.8718 123.214 12.845 123.241 12.8094 123.265C12.7738 123.292 12.7271 123.335 12.6692 123.393C12.6113 123.451 12.5423 123.525 12.4599 123.616C12.175 123.949 11.9523 124.334 11.7943 124.772C11.5872 125.324 11.5583 125.917 11.7052 126.552C11.7943 126.921 11.9434 127.283 12.1505 127.641C12.7159 128.62 13.4728 129.199 14.4189 129.38C15.3718 129.561 16.3424 129.365 17.3286 128.79C18.3103 128.218 18.9604 127.469 19.2742 126.547C19.5881 125.626 19.4635 124.678 18.9002 123.703H18.9025Z" fill="white"/>
<path d="M12.7159 106.785L13.1656 108.055L4.89538 111.015L6.80767 116.406L15.0779 113.446L15.5276 114.715L6.13091 118.078L3.31702 110.148L12.7137 106.785H12.7159Z" fill="white"/>
<path d="M1.64736 103.592L0.451904 96.4958L1.63178 96.2945L2.60239 102.061L5.16027 101.627L4.67719 98.7607C4.46125 97.4795 4.55698 96.4689 4.95992 95.7289C5.36508 94.9888 6.06856 94.535 7.06811 94.365C8.07434 94.1951 8.88913 94.3919 9.51468 94.9598C10.1402 95.5277 10.5588 96.4488 10.7747 97.7255L11.4804 101.92L1.64291 103.59L1.64736 103.592ZM6.34238 101.428L10.0801 100.793L9.59705 97.9267C9.31655 96.2632 8.55297 95.5388 7.30409 95.7512C6.05965 95.9636 5.5788 96.9005 5.85929 98.5617L6.34238 101.428Z" fill="white"/>
<path d="M9.02046 78.3633C9.07166 77.7887 9.02046 77.2677 8.86686 76.7982C8.7177 76.3354 8.51289 75.9754 8.25021 75.7183C7.7226 75.2041 7.24175 74.8754 6.80096 74.739L6.50711 74.6563L6.63177 73.279C7.43542 73.3528 8.24353 73.791 9.05608 74.6004C9.4657 75.0073 9.78404 75.5461 10.0067 76.2169C10.2337 76.901 10.3116 77.6545 10.2382 78.4751C10.1002 80.0021 9.51913 81.1692 8.49286 81.9786C7.46882 82.7991 6.19989 83.139 4.68609 83.0026C3.17674 82.8662 1.98796 82.3028 1.12198 81.3123C0.255993 80.3308 -0.1091 79.0765 0.0266965 77.5517C0.10016 76.7311 0.309421 76.0045 0.654479 75.3717C1.00844 74.7435 1.41583 74.2717 1.87888 73.9542C2.8161 73.3058 3.69321 73.0174 4.50577 73.0912L4.3811 74.4685C4.3811 74.4685 4.34549 74.4752 4.30096 74.4752C4.25644 74.4752 4.19411 74.4841 4.11396 74.4975C4.03382 74.5109 3.93364 74.5311 3.81565 74.5579C3.39268 74.6652 2.98752 74.8508 2.60684 75.1146C2.12153 75.4455 1.75644 75.9128 1.50933 76.5165C1.37131 76.8697 1.28226 77.2521 1.24664 77.6634C1.14647 78.7903 1.42919 79.7025 2.09704 80.4001C2.76935 81.1021 3.67541 81.5046 4.81076 81.6074C5.94166 81.7103 6.90114 81.4755 7.68921 80.9076C8.47505 80.3375 8.92029 79.4924 9.02046 78.37V78.3633Z" fill="white"/>
<path d="M5.65673 59.1442L6.58727 61.7109L5.15361 61.2369L4.12067 58.5114L4.50357 57.3443L13.9782 60.4812L13.5574 61.7623L5.6545 59.1464L5.65673 59.1442Z" fill="white"/>
<path d="M13.2346 54.6926L13.8468 53.4383C13.9848 53.4696 14.1963 53.4741 14.4791 53.4451C14.7173 53.4227 14.9243 53.3713 15.1024 53.293C15.3183 53.2125 15.5432 53.0583 15.7791 52.828C16.0151 52.5999 16.211 52.3227 16.3691 52.0007C16.7809 51.1556 16.801 50.3663 16.4247 49.6307C16.0485 48.8952 15.3873 48.296 14.439 47.8287L14.4212 47.8667C14.4902 47.9785 14.5525 48.1529 14.6082 48.3876C14.6571 48.5933 14.6839 48.8057 14.6839 49.0248C14.6905 49.235 14.6505 49.5257 14.5703 49.8946C14.4969 50.2478 14.3677 50.6123 14.183 50.9879C13.6865 52.0052 13.0009 52.7028 12.1215 53.0851C11.2466 53.4696 10.3717 53.4451 9.49909 53.0158C8.58635 52.5664 8.0209 51.88 7.80051 50.9566C7.57567 50.0421 7.72927 49.036 8.26578 47.9405C8.87576 46.6906 9.71948 45.9305 10.7969 45.6599C11.8789 45.3983 13.0966 45.6018 14.4457 46.2658L14.8464 46.4626C16.6206 47.3368 17.6313 48.5307 17.8762 50.0466C18.0053 50.8515 17.8628 51.6788 17.4488 52.5284C17.2262 52.9845 16.9546 53.3802 16.6318 53.7178C16.309 54.0554 15.9795 54.3036 15.6433 54.4646C15.3183 54.6211 14.9933 54.7284 14.666 54.7843C14.065 54.8939 13.5908 54.8626 13.2413 54.6904L13.2346 54.6926ZM10.6879 47.035C10.1269 47.2943 9.67718 47.7728 9.33657 48.4704C8.99374 49.1724 8.89357 49.823 9.03381 50.4222C9.17406 51.0259 9.53248 51.4686 10.1113 51.7548C10.6901 52.0387 11.26 52.0477 11.8188 51.7794C12.3775 51.5155 12.8228 51.0393 13.1567 50.3529C13.4884 49.6755 13.5886 49.0293 13.4595 48.4167C13.3259 47.8108 12.9697 47.3659 12.3909 47.0819C11.8121 46.798 11.2444 46.7823 10.6856 47.035H10.6879Z" fill="white"/>
<path d="M19.3455 43.1379L20.1581 42.0021C20.2894 42.058 20.4965 42.096 20.7792 42.1162C21.0174 42.134 21.2311 42.1184 21.4203 42.0714C21.6452 42.0267 21.8945 41.9127 22.1639 41.7271C22.4332 41.5415 22.6737 41.3023 22.8829 41.0117C23.4306 40.247 23.5797 39.4712 23.3304 38.6842C23.0811 37.8972 22.529 37.1929 21.6697 36.5736L21.6452 36.6071C21.6941 36.7301 21.7275 36.9112 21.7431 37.1526C21.7565 37.365 21.7476 37.5774 21.7119 37.7943C21.683 38.0022 21.5962 38.2817 21.4537 38.6327C21.3224 38.9681 21.1354 39.3057 20.8905 39.6456C20.2338 40.5645 19.439 41.1391 18.5085 41.3694C17.5824 41.6019 16.7253 41.432 15.9328 40.8619C15.1091 40.2671 14.6639 39.4958 14.5993 38.5478C14.5303 37.6087 14.8486 36.6429 15.5588 35.6524C16.3691 34.5211 17.3264 33.9129 18.4328 33.828C19.5437 33.7519 20.7102 34.1544 21.9301 35.0353L22.2908 35.2969C23.8958 36.4551 24.6928 37.8033 24.6839 39.3393C24.6772 40.1553 24.3989 40.9468 23.8491 41.7137C23.553 42.1251 23.2191 42.4716 22.8473 42.7489C22.4733 43.0284 22.1082 43.2184 21.7498 43.319C21.4047 43.4196 21.0641 43.4688 20.7324 43.4711C20.1225 43.4778 19.6594 43.3682 19.3433 43.1379H19.3455ZM18.1055 35.1605C17.5111 35.3215 16.9858 35.7172 16.5339 36.35C16.0797 36.9849 15.8727 37.611 15.9128 38.2236C15.9506 38.8407 16.2311 39.3393 16.7542 39.7171C17.2774 40.095 17.8384 40.1978 18.435 40.0257C19.0294 39.858 19.5481 39.4645 19.9911 38.8429C20.4297 38.2303 20.6367 37.611 20.61 36.9849C20.5788 36.3656 20.3028 35.867 19.7774 35.4892C19.2542 35.1113 18.6955 35.0018 18.1033 35.1583L18.1055 35.1605Z" fill="white"/>
<path d="M34.695 29.1842L28.9938 34.8922L28.248 34.141C27.9297 33.8213 27.7204 33.4412 27.6202 32.9985C27.5201 32.558 27.5178 32.0997 27.618 31.6257C27.7605 30.9572 28.0833 29.9891 28.5864 28.7214C28.7445 28.3323 28.8691 27.9835 28.9626 27.675C29.0539 27.3664 29.1229 27.0467 29.163 26.7203C29.2053 26.3939 29.1875 26.0943 29.1118 25.8237C29.0361 25.5532 28.9003 25.3184 28.7044 25.1217C28.2859 24.6991 27.8161 24.5337 27.2974 24.6253C26.7787 24.717 26.2311 25.0524 25.6523 25.6314C24.4635 26.8209 24.3411 27.8963 25.2827 28.851L25.4831 29.0545L24.537 30.0025L24.3366 29.799C23.6198 29.0768 23.3059 28.2652 23.3949 27.3664C23.4773 26.4744 23.9426 25.6046 24.7863 24.7595C25.6167 23.9278 26.4715 23.4538 27.3509 23.3353C28.2258 23.2279 28.9938 23.5052 29.6527 24.1692C29.9911 24.5091 30.2226 24.9115 30.3495 25.3766C30.4764 25.8416 30.4965 26.3178 30.4119 26.8053C30.2827 27.5856 29.9822 28.5537 29.5125 29.7096C29.3455 30.1143 29.212 30.4586 29.114 30.7381C29.0161 31.0198 28.9359 31.3194 28.8691 31.6346C28.8023 31.9499 28.7934 32.2249 28.838 32.4596C28.8847 32.6944 28.9849 32.8889 29.1429 33.0477L33.8491 28.3368L34.6928 29.1886L34.695 29.1842Z" fill="white"/>
<path d="M37.9653 14.0812L44.0984 10.3206L44.7217 11.3468L39.7351 14.4054L44.3099 21.9312L43.1634 22.6332L37.9653 14.0812Z" fill="white"/>
<path d="M52.7471 15.7201C51.5539 15.1812 50.6701 14.2064 50.0957 12.7911C49.5236 11.3803 49.4791 10.0612 49.9577 8.83374C50.4274 7.61074 51.3713 6.70971 52.7849 6.13287C54.1941 5.55602 55.4964 5.54037 56.6919 6.08144C57.8851 6.62922 58.7667 7.60627 59.3366 9.0126C59.9087 10.4234 59.9555 11.7425 59.4813 12.9655C59.0027 14.193 58.0588 15.094 56.6496 15.6686C55.236 16.2455 53.9359 16.2611 52.7493 15.7156L52.7471 15.7201ZM56.1865 14.5328C57.2262 14.108 57.9029 13.4351 58.2146 12.5117C58.5263 11.5883 58.4684 10.6 58.041 9.54249C57.6113 8.48048 56.9635 7.72924 56.0997 7.28879C55.2404 6.85056 54.2898 6.84386 53.2458 7.2709C52.2017 7.69794 51.5249 8.36869 51.2155 9.28537C50.9038 10.2065 50.9617 11.1992 51.3914 12.2612C51.8188 13.3188 52.4666 14.0678 53.3304 14.5082C54.1941 14.9487 55.1469 14.9576 56.1865 14.5328Z" fill="white"/>
<path d="M66.1465 14.7698L64.8308 15.0426L64.1006 11.4832L64.6327 11.3736C65.3006 11.235 65.5655 10.4189 65.4297 8.92538L64.8553 2.323L71.26 0.997162L73.0321 9.63414L74.4145 9.34795L75.1447 12.9074L73.8291 13.1801L73.3393 10.799L65.6545 12.3909L66.1443 14.7721L66.1465 14.7698ZM70.1937 2.44597L66.2823 3.25534L66.7542 8.94327C66.8099 9.57824 66.7854 10.0746 66.683 10.4279C66.5984 10.7118 66.5116 10.884 66.4203 10.9466L66.3714 10.9846L66.378 11.0114L71.7275 9.90467L70.1959 2.44597H70.1937Z" fill="white"/>
<path d="M81.5205 0.0514239L83.3014 0L87.6625 9.89798L86.2511 9.93822L85.2916 7.765L79.9778 7.91704L79.1429 10.1439L77.7382 10.1842L81.5205 0.0514239ZM80.4297 6.70299L84.7618 6.57778L82.4867 1.24088H82.411L80.4297 6.70299Z" fill="white"/>
<path d="M102.605 73.8952C101.151 75.3286 98.7872 75.3286 97.3329 73.8952C95.8755 72.4679 95.8755 70.1543 97.3329 68.7209C98.7841 67.2936 101.148 67.2936 102.605 68.7209C104.063 70.1543 104.063 72.4679 102.605 73.8952ZM108.441 92.563C106.984 91.1296 104.623 91.1296 103.169 92.563L102.011 93.6953C101.582 94.1152 100.963 94.2784 100.383 94.1252L100.247 94.0893C99.7425 93.9561 99.3472 93.5642 99.2096 93.0609C99.07 92.5497 99.2178 92.0029 99.5961 91.6318L108.908 82.4956C110.362 81.0622 110.366 78.7486 108.908 77.3152C107.454 75.8879 105.093 75.8879 103.636 77.3152L85.1721 95.4419C84.7321 95.8739 84.0968 96.0418 83.5008 95.8836L83.3234 95.8365C82.8313 95.7058 82.446 95.323 82.3123 94.8317C82.1765 94.3329 82.321 93.7996 82.69 93.4376L94.7887 81.5695C96.243 80.1423 96.243 77.8195 94.7887 76.3953C93.3344 74.968 90.9708 74.968 89.5165 76.3953L87.153 78.7148C86.7456 79.1146 86.1575 79.2696 85.606 79.1225L85.5708 79.1131C85.0368 78.9707 84.6189 78.5549 84.4738 78.0217C84.3263 77.4797 84.4833 76.9004 84.8842 76.507L94.3184 67.2509C95.7758 65.8175 95.7758 63.5008 94.3184 62.0705C92.8673 60.6432 90.5036 60.6432 89.0462 62.0705L73.6775 77.1566C73.3167 77.5108 72.7961 77.6488 72.3073 77.5199C71.8123 77.3894 71.4244 77.005 71.2895 76.5112L71.245 76.3485C71.0802 75.7452 71.2545 75.0999 71.7008 74.6617L76.0572 70.3835C77.5115 68.9563 77.5115 66.6427 76.0572 65.2093C74.6029 63.782 72.2393 63.782 70.785 65.2093L61.6575 74.1703C60.2001 75.6037 60.2001 77.9203 61.6575 79.3507C63.1118 80.778 65.4723 80.778 66.9235 79.3507L67.9722 78.3233C68.419 77.8855 69.0626 77.7141 69.668 77.8715L69.8884 77.9288C70.3698 78.054 70.7475 78.4271 70.8786 78.907C71.0112 79.3923 70.8709 79.9114 70.5119 80.2639L61.0907 89.5159C59.6364 90.9401 59.6364 93.2568 61.0907 94.6902C62.545 96.1144 64.9086 96.1144 66.3629 94.6902L81.4469 79.8834C81.8509 79.4868 82.4341 79.3327 82.9813 79.4778L83.0033 79.4836C83.5421 79.6264 83.9641 80.0453 84.1111 80.583C84.2606 81.1298 84.1025 81.7147 83.6978 82.1118L66.8332 98.6603C65.382 100.088 65.382 102.404 66.8332 103.835C68.2906 105.259 70.6511 105.259 72.1085 103.835L79.47 96.607C79.839 96.2446 80.3715 96.1032 80.8717 96.2346C81.3802 96.3682 81.7785 96.7635 81.9159 97.271L81.9493 97.3944C82.1088 97.9837 81.9379 98.6133 81.5023 99.0411L75.6804 104.758C74.2261 106.182 74.223 108.498 75.6804 109.932C77.1347 111.356 79.4952 111.356 80.9526 109.932L96.3069 94.8598C96.6864 94.4872 97.2337 94.3414 97.7483 94.4756C98.2716 94.6121 98.6822 95.0177 98.8252 95.5394L98.8458 95.6145C99.0038 96.191 98.8371 96.8078 98.4103 97.2262L96.2959 99.299C94.8416 100.732 94.8385 103.043 96.2959 104.473C97.7502 105.907 100.111 105.907 101.568 104.473L108.441 97.7373C109.892 96.3039 109.892 93.9872 108.441 92.563Z" fill="white"/>
</g>
<defs>
<clipPath id="clip0_83_145">
<rect width="170" height="171" fill="white"/>
</clipPath>
</defs>
</svg>
