<svg width="122" height="64" viewBox="0 0 122 64" fill="none" xmlns="http://www.w3.org/2000/svg">
<path fill-rule="evenodd" clip-rule="evenodd" d="M10.6066 38.8383C9.76585 38.8201 8.85431 38.4099 8.19137 37.3007C8.0017 36.9834 7.59069 36.8798 7.27335 37.0695C6.95601 37.2592 6.85251 37.6702 7.04218 37.9875C7.93848 39.4872 9.27033 40.1485 10.5775 40.1768C11.8502 40.2044 13.0807 39.6299 13.8063 38.7112C14.0354 38.4211 13.986 38.0002 13.6958 37.771C13.4057 37.5419 12.9847 37.5913 12.7556 37.8814C12.3038 38.4535 11.4818 38.8573 10.6066 38.8383Z" fill="#2B3039" fill-opacity="0.5"/>
<path fill-rule="evenodd" clip-rule="evenodd" d="M15.7311 35.1963C16.1008 35.1963 16.4005 35.496 16.4005 35.8657V35.8756C16.4005 36.9625 16.4005 38.55 15.7562 39.9203C15.4249 40.6246 14.9225 41.2776 14.1706 41.7815C13.4219 42.2834 12.4606 42.6139 11.2443 42.7302C10.8763 42.7654 10.5495 42.4955 10.5143 42.1275C10.4792 41.7594 10.749 41.4326 11.117 41.3975C12.16 41.2978 12.8972 41.0233 13.4253 40.6694C13.9503 40.3175 14.303 39.8643 14.5446 39.3505C15.0439 38.2889 15.0617 36.9988 15.0617 35.8657C15.0617 35.496 15.3614 35.1963 15.7311 35.1963Z" fill="#2B3039" fill-opacity="0.5"/>
<path fill-rule="evenodd" clip-rule="evenodd" d="M8.65685 36.3827C9.16218 37.3219 10.3271 37.794 11.5255 37.4069C12.125 37.2134 12.8203 36.8322 13.3541 36.0335C13.8805 35.2458 14.2046 34.1192 14.2046 32.5167C14.2046 32.147 13.9049 31.8473 13.5352 31.8473C13.1655 31.8473 12.8658 32.147 12.8658 32.5167C12.8658 33.9481 12.5756 34.7889 12.2409 35.2896C11.9136 35.7795 11.5012 36.0079 11.1141 36.133C10.4733 36.3399 10.0072 36.0669 9.83584 35.7483C9.69161 35.4803 9.64567 34.9419 10.4327 34.3624C11.8468 33.3211 11.9825 31.692 11.2873 30.592C10.9429 30.047 10.3881 29.6257 9.69623 29.5041C8.99732 29.3812 8.24414 29.5782 7.52879 30.108C7.23173 30.3282 7.1693 30.7474 7.38936 31.0445C7.60942 31.3415 8.02864 31.4039 8.32571 31.1838C8.80346 30.8299 9.19208 30.7748 9.46436 30.8227C9.74368 30.8718 9.98939 31.0442 10.1556 31.3072C10.4815 31.8228 10.4783 32.6662 9.63894 33.2843C8.44795 34.1612 8.12438 35.393 8.65685 36.3827Z" fill="#2B3039" fill-opacity="0.5"/>
<path fill-rule="evenodd" clip-rule="evenodd" d="M23.2217 38.8383C24.0625 38.8201 24.9739 38.4099 25.6369 37.3007C25.8266 36.9834 26.2376 36.8798 26.5549 37.0695C26.8723 37.2592 26.9758 37.6702 26.7861 37.9875C25.8898 39.4872 24.558 40.1485 23.2507 40.1768C21.978 40.2044 20.7476 39.6299 20.022 38.7112C19.7929 38.4211 19.8423 38.0002 20.1324 37.771C20.4226 37.5419 20.8435 37.5913 21.0727 37.8814C21.5245 38.4535 22.3464 38.8573 23.2217 38.8383Z" fill="#2B3039" fill-opacity="0.5"/>
<path fill-rule="evenodd" clip-rule="evenodd" d="M18.0972 35.1963C17.7274 35.1963 17.4277 35.496 17.4277 35.8657V35.8756C17.4277 36.9625 17.4277 38.55 18.0721 39.9203C18.4033 40.6246 18.9058 41.2776 19.6576 41.7815C20.4064 42.2834 21.3676 42.6139 22.5839 42.7302C22.9519 42.7654 23.2788 42.4955 23.314 42.1275C23.3491 41.7594 23.0793 41.4326 22.7112 41.3975C21.6682 41.2978 20.931 41.0233 20.4029 40.6694C19.878 40.3175 19.5253 39.8643 19.2837 39.3505C18.7844 38.2889 18.7666 36.9988 18.7666 35.8657C18.7666 35.496 18.4669 35.1963 18.0972 35.1963Z" fill="#2B3039" fill-opacity="0.5"/>
<path fill-rule="evenodd" clip-rule="evenodd" d="M25.1713 36.3827C24.666 37.3219 23.5011 37.794 22.3026 37.4069C21.7031 37.2134 21.0078 36.8322 20.4741 36.0335C19.9477 35.2458 19.6235 34.1192 19.6235 32.5167C19.6235 32.147 19.9232 31.8473 20.293 31.8473C20.6627 31.8473 20.9624 32.147 20.9624 32.5167C20.9624 33.9481 21.2526 34.7889 21.5872 35.2896C21.9146 35.7795 22.327 36.0079 22.714 36.133C23.3548 36.3399 23.821 36.0669 23.9923 35.7483C24.1365 35.4803 24.1825 34.9419 23.3955 34.3624C21.9813 33.3211 21.8456 31.692 22.5409 30.592C22.8852 30.047 23.4401 29.6257 24.1319 29.5041C24.8308 29.3812 25.5841 29.5782 26.2994 30.108C26.5964 30.3282 26.6588 30.7474 26.4388 31.0445C26.2187 31.3415 25.7995 31.4039 25.5025 31.1838C25.0247 30.8299 24.6361 30.7748 24.3638 30.8227C24.0845 30.8718 23.8387 31.0442 23.6726 31.3072C23.3467 31.8228 23.3498 32.6662 24.1893 33.2843C25.3802 34.1612 25.7038 35.393 25.1713 36.3827Z" fill="#2B3039" fill-opacity="0.5"/>
<path fill-rule="evenodd" clip-rule="evenodd" d="M16.9556 24.1396C15.1929 24.1396 13.8383 25.4073 13.8383 27.0416C13.8383 27.4113 13.5386 27.711 13.1689 27.711C12.7992 27.711 12.4995 27.4113 12.4995 27.0416C12.4995 24.5751 14.5499 22.8008 16.9556 22.8008C19.3645 22.8008 21.3989 24.578 21.3989 27.0416C21.3989 27.4113 21.0992 27.711 20.7295 27.711C20.3598 27.711 20.0601 27.4113 20.0601 27.0416C20.0601 25.4045 18.7153 24.1396 16.9556 24.1396Z" fill="#2B3039" fill-opacity="0.5"/>
<path d="M13.4995 30.5977C14.013 30.5977 14.4293 30.1815 14.4293 29.668C14.4293 29.1545 14.013 28.7383 13.4995 28.7383C12.9861 28.7383 12.5698 29.1545 12.5698 29.668C12.5698 30.1815 12.9861 30.5977 13.4995 30.5977Z" fill="#2B3039" fill-opacity="0.5"/>
<path d="M20.3292 30.5977C19.8157 30.5977 19.3994 30.1815 19.3994 29.668C19.3994 29.1545 19.8157 28.7383 20.3292 28.7383C20.8426 28.7383 21.2589 29.1545 21.2589 29.668C21.2589 30.1815 20.8426 30.5977 20.3292 30.5977Z" fill="#2B3039" fill-opacity="0.5"/>
<path d="M32.7153 38.3869H34.6808V31.4092H34.6971L37.8485 36.8998H39.1318L42.2832 31.4092H42.3157V38.3869H44.2813V27.5918H42.3157L38.5145 34.4956H38.482L34.6808 27.5918H32.7153V38.3869Z" fill="#2B3039" fill-opacity="0.5"/>
<path d="M49.611 38.5176C50.7156 38.5176 51.5603 38.0952 52.1289 37.3318L52.1613 37.348V38.3876H53.8995V30.4604H52.0801V31.4188L52.0476 31.435C51.479 30.7203 50.6019 30.3467 49.5947 30.3467C47.418 30.3467 45.7773 32.0686 45.7773 34.4565C45.7773 36.9094 47.418 38.5176 49.611 38.5176ZM49.9034 36.8607C48.5551 36.8607 47.6291 35.8697 47.6291 34.4727C47.6291 32.9458 48.6363 31.9873 49.9034 31.9873C51.2029 31.9873 52.1613 33.0595 52.1613 34.4727C52.1613 35.9023 51.1379 36.8607 49.9034 36.8607Z" fill="#2B3039" fill-opacity="0.5"/>
<path d="M59.349 38.5176C61.0709 38.5176 62.0943 37.9003 62.7603 37.0394L61.5095 35.9348C61.1034 36.4708 60.3887 36.8607 59.5114 36.8607C58.1144 36.8607 57.156 35.886 57.156 34.424C57.156 32.9783 58.0982 31.9873 59.5114 31.9873C60.3724 31.9873 61.0547 32.3609 61.5095 32.8971L62.7441 31.8249C61.9481 30.8502 60.6486 30.3467 59.414 30.3467C57.0098 30.3467 55.3042 32.0036 55.3042 34.4402C55.3042 36.8607 57.0098 38.5176 59.349 38.5176Z" fill="#2B3039" fill-opacity="0.5"/>
<path d="M64.0962 38.3876H65.9156V34.6352C65.9156 33.3356 66.6953 32.3448 68.076 32.3448C68.206 32.3448 68.4172 32.3609 68.6283 32.3772V30.3467H68.4009C67.4425 30.3467 66.5653 30.8178 65.9481 31.6463H65.9156V30.4604H64.0962V38.3876Z" fill="#2B3039" fill-opacity="0.5"/>
<path d="M73.3763 38.5176C75.813 38.5176 77.5349 36.8444 77.5349 34.4402C77.5349 32.0036 75.813 30.3467 73.3763 30.3467C70.8747 30.3467 69.2178 32.101 69.2178 34.4402C69.2178 36.7632 70.8747 38.5176 73.3763 38.5176ZM73.3763 36.8607C72.0118 36.8607 71.0697 35.7886 71.0697 34.4402C71.0697 33.0595 71.9956 31.9873 73.3763 31.9873C74.6759 31.9873 75.6831 32.9783 75.6831 34.4402C75.6831 35.8697 74.6596 36.8607 73.3763 36.8607Z" fill="#2B3039" fill-opacity="0.5"/>
<path d="M79.0083 38.3876H80.8277V34.4402C80.8277 32.8808 81.6399 31.9873 82.7282 31.9873C83.8002 31.9873 84.3039 32.8321 84.3039 34.2616V38.3876H86.1232V34.4402C86.1232 32.8808 86.952 31.9873 87.9755 31.9873C89.0473 31.9873 89.518 32.8321 89.518 34.2616V38.3876H91.3381V33.8067C91.3381 31.435 90.2985 30.3467 88.5597 30.3467C87.3905 30.3467 86.3831 30.8015 85.7169 31.6625H85.6847C85.2139 30.769 84.3852 30.3467 83.3134 30.3467C82.4033 30.3467 81.4937 30.769 80.8439 31.5487H80.8277V30.4604H79.0083V38.3876Z" fill="#2B3039" fill-opacity="0.5"/>
<path d="M100.412 34.3265C100.412 32.0199 98.9012 30.3467 96.6756 30.3467C94.3526 30.3467 92.6958 31.9873 92.6958 34.424C92.6958 36.9094 94.4016 38.5176 96.8059 38.5176C98.511 38.5176 99.5023 37.8841 100.169 37.0231L98.9012 35.9348C98.4949 36.4383 97.8455 36.8607 96.9033 36.8607C95.6682 36.8607 94.8072 36.1784 94.5803 35.025H100.363C100.379 34.8951 100.412 34.6189 100.412 34.3265ZM96.6595 31.9873C97.6991 31.9873 98.3492 32.6371 98.5761 33.5956H94.6125C94.8724 32.5559 95.6521 31.9873 96.6595 31.9873Z" fill="#2B3039" fill-opacity="0.5"/>
<path d="M104.414 38.5175C105.454 38.5175 105.957 38.3063 106.428 38.0464L105.957 36.4707C105.535 36.6981 105.096 36.8118 104.787 36.8118C104.267 36.8118 104.024 36.5194 104.024 35.7072V32.0035H106.347V30.4603H104.024V27.6338L102.204 27.8287V30.4603H101.23V32.0035H102.204V35.8859C102.204 37.6565 103.049 38.5175 104.414 38.5175Z" fill="#2B3039" fill-opacity="0.5"/>
<path d="M110.759 38.5176C111.863 38.5176 112.708 38.0952 113.276 37.3318L113.309 37.348V38.3876H115.047V30.4604H113.228V31.4188L113.195 31.435C112.627 30.7203 111.75 30.3467 110.743 30.3467C108.566 30.3467 106.925 32.0686 106.925 34.4565C106.925 36.9094 108.566 38.5176 110.759 38.5176ZM111.051 36.8607C109.703 36.8607 108.777 35.8697 108.777 34.4727C108.777 32.9458 109.784 31.9873 111.051 31.9873C112.351 31.9873 113.309 33.0595 113.309 34.4727C113.309 35.9023 112.286 36.8607 111.051 36.8607Z" fill="#2B3039" fill-opacity="0.5"/>
</svg>
