<svg width="121" height="64" viewBox="0 0 121 64" fill="none" xmlns="http://www.w3.org/2000/svg">
<mask id="mask0_103_1469" style="mask-type:luminance" maskUnits="userSpaceOnUse" x="15" y="23" width="91" height="18">
<path d="M105.904 23.5H15.2378V40.5H105.904V23.5Z" fill="white"/>
</mask>
<g mask="url(#mask0_103_1469)">
<mask id="mask1_103_1469" style="mask-type:luminance" maskUnits="userSpaceOnUse" x="15" y="23" width="91" height="18">
<path d="M105.904 23.54H15.2378V40.4587H105.904V23.54Z" fill="white"/>
</mask>
<g mask="url(#mask1_103_1469)">
<path d="M61.8809 23.6377H59.4779C59.348 23.6377 59.2413 23.7433 59.2413 23.8743V34.9288L52.3547 23.7465C52.3114 23.6789 52.2364 23.6377 52.1561 23.6377H49.6951C49.5652 23.6377 49.4585 23.7433 49.4585 23.8743V39.9416C49.4585 40.0716 49.5641 40.1782 49.6951 40.1782H52.098C52.228 40.1782 52.3346 40.0726 52.3346 39.9416V29.0699L59.2213 40.0705C59.2645 40.1381 59.3395 40.1793 59.4198 40.1793H61.8809C62.0107 40.1793 62.1174 40.0737 62.1174 39.9427V23.8743C62.1174 23.7444 62.0118 23.6377 61.8809 23.6377Z" fill="#2B3039" fill-opacity="0.5"/>
<path d="M75.1453 36.4478H72.6344C72.5471 36.4478 72.4667 36.4975 72.4253 36.5788C72.1907 37.0382 71.8719 37.3973 71.4769 37.6466C71.0544 37.9139 70.5284 38.0491 69.9147 38.0491C69.3455 38.0491 68.8342 37.9202 68.3948 37.6667C67.9554 37.4143 67.6048 37.0551 67.3513 36.5999C67.1136 36.1732 66.9647 35.6831 66.9087 35.1413H75.6746L75.6882 35.0494C75.7188 34.8476 75.7386 34.6554 75.7471 34.4779C75.7545 34.3005 75.759 34.103 75.759 33.8896C75.759 32.788 75.5108 31.7898 75.0218 30.9216C74.5316 30.0534 73.8516 29.3616 72.9999 28.8641C72.1476 28.3666 71.1326 28.1152 69.9834 28.1152C68.8342 28.1152 67.7537 28.3751 66.8623 28.8873C65.9708 29.4007 65.2663 30.1242 64.7688 31.0399C64.2724 31.9535 64.021 33.0457 64.021 34.2868C64.021 35.5279 64.2724 36.5535 64.7688 37.4745C65.2652 38.3976 65.9655 39.1338 66.8485 39.6619C67.7326 40.19 68.7782 40.4583 69.9591 40.4583C70.9509 40.4583 71.8255 40.2777 72.5596 39.9228C73.2923 39.5679 73.9094 39.0916 74.3922 38.5074C74.7996 38.0121 75.1379 37.4079 75.368 36.7605C75.3935 36.6887 75.3827 36.6115 75.3385 36.5492C75.2943 36.4859 75.2212 36.4478 75.143 36.4478H75.1453ZM67.9618 31.1794C68.5385 30.7452 69.1944 30.5255 69.9137 30.5255C70.7069 30.5255 71.3977 30.7685 71.9657 31.2459C72.5024 31.698 72.7953 32.3159 72.8333 33.0827H66.9383C67.0724 32.2314 67.4157 31.5913 67.9618 31.1794Z" fill="#2B3039" fill-opacity="0.5"/>
<path d="M83.3851 34.2607L87.0492 28.7651C87.0979 28.6922 87.103 28.5993 87.0622 28.5222C87.0197 28.444 86.9427 28.3965 86.8531 28.3965H84.3422C84.2612 28.3965 84.1858 28.4377 84.1428 28.5053L81.7503 32.2032L79.1997 28.5C79.155 28.4345 79.0824 28.3965 79.0031 28.3965H76.3732C76.2854 28.3965 76.2049 28.4451 76.1641 28.5222C76.1227 28.5993 76.1278 28.6933 76.1766 28.7651L79.865 34.2649L76.1975 39.8122C76.1482 39.8861 76.1437 39.977 76.1862 40.0551C76.2281 40.1333 76.3052 40.1798 76.3942 40.1798H78.9056C78.9872 40.1798 79.062 40.1386 79.1057 40.071L81.4976 36.4502L84.0708 40.0762C84.115 40.1418 84.1881 40.1798 84.2663 40.1798H86.8741C86.9619 40.1798 87.0418 40.1322 87.0832 40.0541C87.1246 39.977 87.1189 39.884 87.0707 39.8112L83.3834 34.2596L83.3851 34.2607Z" fill="#2B3039" fill-opacity="0.5"/>
<path d="M92.9183 37.7225H92.3449C91.9805 37.7225 91.7816 37.7141 91.6127 37.545C91.4439 37.3761 91.3742 37.1078 91.3742 36.6188V23.8743C91.3742 23.7444 91.2682 23.6377 91.1373 23.6377H88.7579C88.6275 23.6377 88.521 23.7433 88.521 23.8743V38.1481C88.5782 38.5844 88.7618 39.3723 89.367 39.7536C89.9943 40.1476 90.6528 40.1793 91.3855 40.1793H92.9172C93.047 40.1793 93.1535 40.0737 93.1535 39.9427V37.9591C93.1535 37.8292 93.0481 37.7225 92.9172 37.7225H92.9183Z" fill="#2B3039" fill-opacity="0.5"/>
<path d="M105.667 37.7227C105.332 37.7227 105.102 37.6636 104.985 37.5452C104.799 37.3593 104.762 37.053 104.762 36.6189V33.0975C104.762 32.1204 104.566 31.248 104.178 30.5055C103.789 29.7587 103.21 29.1672 102.456 28.7469C101.704 28.3275 100.749 28.1152 99.6154 28.1152C98.7348 28.1152 97.8973 28.279 97.125 28.6022C96.3509 28.9264 95.7043 29.3996 95.2056 30.009C94.7455 30.572 94.4588 31.248 94.3545 32.0191C94.346 32.0846 94.3658 32.1522 94.4095 32.2028C94.4548 32.2546 94.5205 32.2852 94.5891 32.2852L97.0014 32.2968H97.0037C97.1142 32.2968 97.2083 32.2198 97.2338 32.1088C97.3533 31.5818 97.6174 31.192 98.0163 30.9522C98.4634 30.684 98.9932 30.5477 99.5922 30.5477C100.053 30.5477 100.459 30.6417 100.8 30.8266C101.135 31.0093 101.403 31.2924 101.594 31.6663C101.776 32.0222 101.872 32.4828 101.884 33.0351H99.1021C98.1926 33.0351 97.3488 33.1672 96.5957 33.426C95.8329 33.6879 95.2204 34.104 94.7739 34.6618C94.3251 35.2237 94.0967 35.9598 94.0967 36.8513C94.0967 37.6012 94.2877 38.2582 94.6639 38.8022C95.0391 39.345 95.5491 39.7623 96.1786 40.0411C96.8037 40.3178 97.4893 40.4583 98.2158 40.4583C99.2607 40.4583 100.196 40.2608 100.997 39.8711C101.573 39.5911 102.015 39.2437 102.312 38.8381C102.415 39.2648 102.624 39.4708 102.977 39.7021C103.455 40.0147 104.022 40.1794 104.617 40.1794H105.667C105.798 40.1794 105.904 40.0739 105.904 39.9429V37.9371C105.904 37.8072 105.811 37.7227 105.667 37.7227ZM98.8929 38.0955C98.3722 38.0955 97.9223 37.9719 97.5539 37.729C97.1986 37.4956 97.0195 37.1143 97.0195 36.5957C97.0195 36.2059 97.1198 35.8975 97.317 35.6778C97.5199 35.4528 97.8021 35.287 98.1535 35.1846C98.5161 35.0789 98.8975 35.0251 99.2891 35.0251H101.886C101.876 35.6271 101.651 36.1119 101.431 36.508C101.169 36.9791 100.813 37.3583 100.373 37.634C99.8648 37.953 99.4075 38.0955 98.8929 38.0955Z" fill="#2B3039" fill-opacity="0.5"/>
<path d="M17.4894 36.0289L15.34 33.8784C15.2037 33.7421 15.2037 33.5214 15.34 33.3841L24.1014 24.6237C24.7996 23.9256 25.7291 23.54 26.7177 23.54C27.7063 23.54 28.6348 23.9245 29.334 24.6237L34.3457 29.6356C34.482 29.7718 34.482 29.9926 34.3457 30.1299L32.1963 32.2793C32.0601 32.4155 31.8393 32.4155 31.702 32.2793L27.325 27.9023C26.9902 27.5674 26.4462 27.5674 26.1114 27.9023L17.9837 36.0289C17.8475 36.1651 17.6267 36.1651 17.4894 36.0289Z" fill="#2B3039" fill-opacity="0.5"/>
<path d="M31.9416 40.2777C30.9942 40.2777 30.0467 39.9175 29.3264 39.1961L24.3146 34.1843C24.1783 34.0481 24.1783 33.8273 24.3146 33.69L26.464 31.5406C26.6003 31.4043 26.821 31.4043 26.9583 31.5406L31.3353 35.9176C31.6702 36.2524 32.2141 36.2524 32.5489 35.9176L40.7442 27.7223C40.8805 27.5861 41.1012 27.5861 41.2385 27.7223L43.388 29.8717C43.5242 30.008 43.5242 30.2287 43.388 30.366L34.5579 39.1961C33.8365 39.9175 32.889 40.2777 31.9416 40.2777Z" fill="#2B3039" fill-opacity="0.5"/>
</g>
</g>
</svg>
