<svg width="122" height="64" viewBox="0 0 122 64" fill="none" xmlns="http://www.w3.org/2000/svg">
<mask id="mask0_103_1485" style="mask-type:luminance" maskUnits="userSpaceOnUse" x="18" y="21" width="86" height="22">
<path d="M103.2 21H18.0386V43H103.2V21Z" fill="white"/>
</mask>
<g mask="url(#mask0_103_1485)">
<mask id="mask1_103_1485" style="mask-type:luminance" maskUnits="userSpaceOnUse" x="18" y="21" width="86" height="23">
<path d="M103.199 21.001H18.0386V43.001H103.199V21.001Z" fill="white"/>
</mask>
<g mask="url(#mask1_103_1485)">
<mask id="mask2_103_1485" style="mask-type:luminance" maskUnits="userSpaceOnUse" x="18" y="21" width="86" height="23">
<path d="M103.012 21.0059H18.228V43.7155H103.012V21.0059Z" fill="white"/>
</mask>
<g mask="url(#mask2_103_1485)">
<mask id="mask3_103_1485" style="mask-type:luminance" maskUnits="userSpaceOnUse" x="18" y="16" width="86" height="32">
<path d="M103.011 16.459H18.228V47.4047H103.011V16.459Z" fill="white"/>
</mask>
<g mask="url(#mask3_103_1485)">
<path d="M59.3413 24.5469H56.0252L52.3081 32.2122L48.6119 24.5469H45.3125L52.3081 38.7442L59.3413 24.5469Z" fill="#2B3039" fill-opacity="0.5"/>
<path d="M68.7881 24.542C64.7369 24.542 61.4458 27.7411 61.4458 31.6511C61.4458 35.5612 64.7369 38.7603 68.7881 38.7603C72.8392 38.7603 76.168 35.5821 76.168 31.6511C76.168 27.7202 72.8643 24.542 68.7881 24.542ZM68.7881 36.063C67.9164 36.063 67.0641 35.8043 66.3392 35.3196C65.6141 34.835 65.0488 34.1459 64.7146 33.3397C64.3805 32.5336 64.2924 31.6463 64.4616 30.79C64.6307 29.9338 65.0495 29.1469 65.6651 28.5288C66.2806 27.9107 67.0653 27.4892 67.92 27.3173C68.7747 27.1455 69.6611 27.2312 70.4672 27.5635C71.2733 27.8958 71.9629 28.4599 72.4491 29.1844C72.9353 29.909 73.1959 30.7616 73.1984 31.6344C73.1844 32.8025 72.7156 33.9188 71.892 34.746C71.0682 35.5731 69.9546 36.0456 68.7881 36.063Z" fill="#2B3039" fill-opacity="0.5"/>
<path d="M91.1255 36.1389H83.8664V24.5469H80.8511V38.7401H91.1255V36.1389Z" fill="#2B3039" fill-opacity="0.5"/>
<path d="M103.076 27.1694V24.5684H92.0049V27.1694H96.0437V38.7239H99.0548V27.1694H103.076Z" fill="#2B3039" fill-opacity="0.5"/>
<path d="M41.75 22.576H23.1563L22.5256 21.4678H18.228L26.8316 36.3845L27.5249 37.5888L26.8943 38.6845L29.0409 42.4105L35.7233 30.8143L38.3336 26.2852H39.5866L41.7333 22.5634L41.75 22.576ZM27.9049 34.536L28.9783 32.671L24.2296 24.4369H25.6204L26.6937 26.2978H36.1911L35.4978 27.5022H33.3511L28.5982 35.7404L27.9049 34.536Z" fill="#2B3039" fill-opacity="0.5"/>
</g>
</g>
</g>
</g>
</svg>
