<svg width="121" height="64" viewBox="0 0 121 64" fill="none" xmlns="http://www.w3.org/2000/svg">
<mask id="mask0_103_1590" style="mask-type:luminance" maskUnits="userSpaceOnUse" x="22" y="23" width="77" height="18">
<path d="M98.54 23H22.6025V41H98.54V23Z" fill="white"/>
</mask>
<g mask="url(#mask0_103_1590)">
<mask id="mask1_103_1590" style="mask-type:luminance" maskUnits="userSpaceOnUse" x="22" y="23" width="77" height="19">
<path d="M98.2025 23.0039H22.6025V41.0039H98.2025V23.0039Z" fill="white"/>
</mask>
<g mask="url(#mask1_103_1590)">
<mask id="mask2_103_1590" style="mask-type:luminance" maskUnits="userSpaceOnUse" x="22" y="23" width="77" height="18">
<path d="M98.2025 23.0059H22.6025V40.8979H98.2025V23.0059Z" fill="white"/>
</mask>
<g mask="url(#mask2_103_1590)">
<path fill-rule="evenodd" clip-rule="evenodd" d="M22.6025 23.0059V40.7167H28.6028H28.605C30.1406 40.7086 31.5412 40.3438 32.797 39.6169C34.0602 38.8822 35.0398 37.8665 35.7284 36.5773C36.4242 35.2819 36.7676 33.8263 36.7676 32.2203V31.4443V31.4422C36.7595 29.8502 36.4035 28.4022 35.692 27.1076C34.988 25.8046 34.001 24.7924 32.735 24.0804C31.4705 23.3615 30.0508 23.0059 28.4863 23.0059H22.6025ZM31.2329 27.8075C30.6045 26.9813 29.689 26.5682 28.4863 26.5682H27.1131V37.1659H28.5329C29.7045 37.1659 30.6045 36.7528 31.2329 35.9267C31.8614 35.0927 32.1756 33.8572 32.1756 32.2203V31.4907C32.1756 29.8614 31.8614 28.6337 31.2329 27.8075Z" fill="#2B3039" fill-opacity="0.5"/>
<path fill-rule="evenodd" clip-rule="evenodd" d="M43.1802 40.7167L44.1578 37.5663H49.1287L50.118 40.7167H55.4294L48.8536 23.0059H44.4194L37.8926 40.7167H43.1802ZM47.8861 33.5804H45.3984L46.6382 29.5859L47.8861 33.5804Z" fill="#2B3039" fill-opacity="0.5"/>
<path d="M72.3741 40.7167V36.7424H64.6558L72.2927 25.6454V23.0059H58.2788V26.9918H66.0143L58.3253 38.0179V40.7167H72.3741Z" fill="#2B3039" fill-opacity="0.5"/>
<path d="M90.2121 40.7167V36.7424H82.4941L90.1311 25.6454V23.0059H76.1172V26.9918H83.8531L76.1637 38.0179V40.7167H90.2121Z" fill="#2B3039" fill-opacity="0.5"/>
<path d="M96.0791 40.8448C97.2513 40.8448 98.2025 39.8941 98.2025 38.7213C98.2025 37.5484 97.2513 36.5977 96.0791 36.5977C94.9063 36.5977 93.9551 37.5484 93.9551 38.7213C93.9551 39.8941 94.9063 40.8448 96.0791 40.8448Z" fill="#2B3039" fill-opacity="0.5"/>
</g>
</g>
</g>
</svg>
